<?xml version="1.0" standalone="no"?>
<!DOCTYPE svg PUBLIC "-//W3C//DTD SVG 20010904//EN"
 "http://www.w3.org/TR/2001/REC-SVG-20010904/DTD/svg10.dtd">
<svg version="1.0" xmlns="http://www.w3.org/2000/svg"
 width="1024.000000pt" height="1024.000000pt" viewBox="0 0 1024.000000 1024.000000"
 preserveAspectRatio="xMidYMid meet">

<g transform="translate(0.000000,1024.000000) scale(0.100000,-0.100000)"
fill="#000000" stroke="none">
<path d="M7997 9906 c-4 -9 -16 -16 -27 -16 -11 0 -20 -4 -20 -9 0 -5 -9 -13
-20 -16 -11 -3 -20 -10 -20 -15 0 -12 100 -41 130 -38 14 2 77 -1 140 -6 407
-30 823 -220 1106 -504 253 -254 414 -557 476 -897 10 -56 13 -695 13 -3225 0
-3019 -1 -3160 -18 -3260 -26 -146 -79 -304 -149 -443 -89 -179 -147 -263
-283 -412 -220 -242 -584 -446 -917 -514 -177 -36 -288 -41 -1013 -42 -390 0
-768 -5 -840 -10 -115 -9 -1034 -24 -1110 -19 -16 2 -43 2 -60 2 -343 -4
-1558 -1 -1588 3 -60 9 -336 14 -1037 20 -338 3 -663 10 -722 16 -247 23 -452
86 -678 209 -156 86 -238 148 -381 290 -183 181 -289 328 -367 505 -89 203
-125 335 -141 510 -10 105 -26 3494 -26 5380 0 1021 4 1081 85 1275 56 134
111 233 190 340 43 58 92 131 110 163 21 38 40 59 56 63 13 3 24 13 24 20 0
25 93 111 138 129 24 10 41 20 38 23 -3 2 4 16 14 30 21 26 26 52 11 52 -5 0
-9 14 -9 30 1 17 -2 33 -5 37 -4 3 -1 13 6 22 6 8 -9 -1 -34 -20 -26 -19 -44
-38 -41 -43 3 -5 0 -6 -6 -2 -7 4 -33 -15 -64 -46 -29 -29 -46 -45 -39 -35 7
9 11 17 7 17 -3 0 -15 -15 -26 -32 -11 -18 -20 -29 -20 -24 0 5 -9 1 -20 -9
-11 -10 -17 -22 -13 -28 3 -5 2 -7 -3 -4 -6 3 -23 -9 -40 -26 -234 -245 -387
-550 -461 -922 -17 -86 -18 -249 -18 -3300 0 -3063 1 -3214 18 -3300 54 -268
133 -461 274 -675 268 -404 682 -683 1178 -793 l100 -22 3215 0 c3016 0 3221
1 3305 17 472 92 855 326 1140 699 172 224 270 440 333 728 l27 126 0 3240 0
3240 -23 109 c-55 255 -146 460 -299 674 -36 51 -47 61 -59 51 -11 -9 -14 -7
-14 10 0 15 4 20 12 15 23 -15 -33 51 -123 143 -226 232 -480 383 -789 472
-163 46 -211 53 -421 58 -175 5 -197 4 -202 -11z"/>
<path d="M1962 9740 c-29 -4 -67 -15 -85 -23 -17 -8 -39 -17 -47 -21 -8 -3 1
-4 20 -1 124 16 291 25 535 29 252 3 330 8 344 22 8 7 -712 2 -767 -6z"/>
<path d="M7410 9742 c0 -6 17 -12 38 -15 50 -6 365 0 423 8 27 4 55 2 66 -4
11 -5 82 -11 159 -12 76 -1 144 -6 151 -11 6 -5 38 -11 70 -12 71 -4 153 -22
211 -47 23 -10 70 -26 104 -34 33 -9 77 -26 97 -38 20 -13 56 -31 81 -42 67
-28 291 -180 371 -252 43 -39 78 -63 92 -63 34 1 -145 167 -262 244 -153 101
-346 192 -480 226 -205 52 -213 53 -678 57 -294 3 -443 2 -443 -5z"/>
<path d="M1613 9655 c-201 -69 -418 -210 -605 -395 -76 -75 -138 -144 -138
-153 0 -31 19 -27 47 10 49 67 188 198 289 273 55 41 158 103 234 141 130 66
282 129 307 129 6 0 15 5 18 10 12 19 -79 10 -152 -15z"/>
<path d="M1206 9561 c-3 -5 2 -15 11 -22 14 -12 16 -12 8 0 -6 11 -4 13 8 8 9
-3 19 -1 23 5 4 7 3 8 -4 4 -7 -4 -12 -2 -12 3 0 13 -27 15 -34 2z"/>
<path d="M9330 9150 c0 -5 5 -10 10 -10 6 0 10 -6 10 -13 0 -8 8 -22 19 -31
32 -29 34 7 2 38 -29 28 -41 32 -41 16z"/>
<path d="M820 9048 c-89 -106 -249 -453 -222 -480 7 -7 12 -3 17 11 3 12 10
21 14 21 5 0 9 12 9 26 0 15 4 29 9 33 15 9 67 124 65 142 -1 9 8 25 18 34 11
10 20 24 20 30 0 7 22 46 50 86 27 41 50 79 50 86 0 18 -18 25 -30 11z"/>
<path d="M6597 8965 c12 -16 41 -48 64 -70 l43 -40 -31 40 c-17 22 -46 54 -64
70 l-32 30 20 -30z"/>
<path d="M5498 8844 c-5 -4 -8 -30 -8 -58 -1 -28 -9 -73 -19 -101 -20 -57 -17
-56 -210 -70 l-104 -7 8 43 c17 93 15 101 -40 131 -65 36 -149 54 -181 39 -31
-14 -30 -26 6 -97 17 -32 31 -77 33 -99 l2 -40 -90 -12 c-49 -7 -136 -13 -192
-14 -60 -1 -103 -6 -103 -12 0 -43 101 -131 164 -143 27 -4 122 14 217 42 11
3 19 -3 23 -20 8 -31 71 -86 99 -86 36 0 47 19 47 81 l0 56 100 12 c149 17
144 17 124 -21 -9 -18 -37 -55 -63 -83 l-46 -50 -110 -12 c-207 -23 -299 -26
-353 -14 -100 24 -127 -8 -81 -96 28 -54 32 -74 43 -215 13 -170 22 -196 76
-218 27 -11 36 -11 65 3 19 9 68 19 111 23 l77 7 -6 -53 c-4 -29 -9 -55 -12
-58 -5 -5 -239 -31 -292 -31 -27 -1 -33 3 -33 19 0 53 -72 110 -137 110 -58 0
-68 -17 -54 -87 16 -79 5 -84 -135 -60 -39 7 -77 11 -83 9 -33 -11 14 -129 70
-177 27 -22 40 -26 81 -23 37 2 48 0 48 -12 0 -8 -12 -73 -27 -143 -25 -125
-26 -130 -9 -182 18 -59 55 -105 85 -105 24 0 66 49 79 92 6 18 18 101 27 183
9 83 20 168 23 190 l7 40 95 17 c52 9 127 19 166 23 l71 7 -9 -58 c-5 -33 -14
-64 -21 -71 -14 -15 -156 -21 -209 -10 -37 8 -38 7 -38 -20 0 -34 51 -126 82
-147 32 -23 58 -20 182 18 61 19 123 36 139 39 23 4 25 2 15 -10 -10 -12 -9
-18 7 -29 10 -8 25 -14 32 -14 7 0 13 -10 13 -23 0 -15 26 -48 76 -97 78 -77
156 -178 168 -217 11 -37 54 -63 101 -63 50 0 95 30 172 113 71 79 104 140
157 297 35 104 52 140 73 157 55 44 63 53 63 70 0 23 -129 149 -200 196 -66
44 -75 45 -295 29 -362 -26 -325 -26 -325 1 0 14 3 39 6 56 l7 31 104 0 c57 0
124 -5 149 -11 60 -15 80 -1 142 104 75 128 127 193 174 219 50 27 60 60 29
99 -27 35 -154 119 -198 131 -32 9 -163 0 -278 -18 -20 -3 -9 5 34 26 36 17
89 48 118 70 63 49 92 50 293 19 208 -33 222 -34 236 -15 6 9 9 27 6 39 -8 36
-62 104 -103 132 -33 24 -50 27 -153 32 -64 3 -116 8 -116 11 0 3 7 14 16 23
21 23 21 65 0 88 -38 42 -188 96 -208 75z m47 -618 c26 -19 15 -70 -39 -183
-49 -102 -40 -96 -170 -107 l-58 -5 5 45 c2 25 7 48 10 51 3 3 37 7 74 10 125
8 138 19 84 74 -25 24 -37 29 -80 29 -47 0 -51 2 -51 23 0 13 -10 32 -21 43
l-21 19 38 6 c77 12 209 10 229 -5z m-411 -32 c3 -9 6 -28 6 -44 0 -33 -6 -36
-107 -45 -40 -4 -73 -11 -73 -17 0 -40 57 -78 120 -78 l40 0 -6 -42 c-4 -24
-8 -44 -10 -46 -1 -2 -40 -4 -86 -5 l-83 -2 -9 128 c-5 76 -5 132 0 137 11 11
102 27 160 29 30 1 44 -4 48 -15z m560 -604 c46 -17 52 -49 29 -143 -39 -155
-80 -239 -135 -280 l-26 -20 -109 52 c-60 28 -114 51 -120 51 -7 0 -23 5 -35
11 -20 8 -23 16 -20 45 3 24 0 34 -9 34 -20 1 53 39 75 40 16 0 18 -5 13 -37
-4 -21 -2 -42 5 -50 23 -28 142 -6 179 33 19 21 20 26 9 54 -16 38 -123 138
-170 158 -45 19 -21 29 31 12 44 -15 52 -11 52 25 l0 25 103 0 c56 0 114 -4
128 -10z m-266 -7 c-10 -2 -26 -2 -35 0 -10 3 -2 5 17 5 19 0 27 -2 18 -5z
m-134 -60 c7 -26 -5 -43 -30 -43 -6 0 -26 -3 -43 -6 -35 -7 -40 6 -19 51 9 20
18 25 49 25 32 0 38 -4 43 -27z"/>
<path d="M9560 8802 c0 -18 7 -49 15 -70 19 -43 87 -262 88 -279 0 -7 4 -10 8
-7 4 2 12 -8 17 -23 17 -45 13 -3 -7 94 -20 90 -65 217 -101 283 l-19 35 -1
-33z"/>
<path d="M6732 8720 c0 -19 2 -27 5 -17 2 9 2 25 0 35 -3 9 -5 1 -5 -18z"/>
<path d="M6760 8696 c0 -22 -4 -27 -16 -22 -15 6 -16 -1 -11 -61 6 -71 -17
-284 -94 -873 -21 -168 -57 -444 -79 -615 -41 -322 -82 -612 -105 -750 -7 -44
-12 -82 -10 -85 8 -13 75 -11 75 2 0 7 7 70 15 139 14 125 12 157 -16 230 -8
20 -6 36 5 64 9 21 16 47 16 59 0 11 14 50 30 84 31 65 38 102 20 102 -15 0
-12 40 4 46 17 6 20 24 81 469 25 182 59 425 75 540 16 116 34 255 40 310 5
55 15 144 21 198 10 85 9 100 -4 115 -9 9 -23 31 -31 47 l-16 30 0 -29z m-13
-78 c-3 -8 -6 -5 -6 6 -1 11 2 17 5 13 3 -3 4 -12 1 -19z"/>
<path d="M6841 8670 c-1 -45 -84 -726 -116 -950 -14 -96 -43 -319 -65 -495
-23 -176 -50 -385 -60 -465 -11 -80 -28 -215 -40 -300 -11 -85 -27 -199 -37
-253 -13 -76 -14 -100 -4 -110 19 -19 26 2 40 121 7 59 23 185 37 281 13 95
24 196 24 224 0 27 6 84 14 126 8 42 22 139 31 216 9 77 23 181 30 230 8 50
17 117 20 150 4 33 8 71 11 85 2 14 6 52 9 84 3 33 8 63 12 68 3 5 9 55 13
111 5 56 15 129 23 162 15 59 19 90 52 365 9 74 23 157 31 184 19 66 17 113
-5 161 l-19 40 -1 -35z"/>
<path d="M6722 8545 c0 -16 2 -22 5 -12 2 9 2 23 0 30 -3 6 -5 -1 -5 -18z"/>
<path d="M575 8540 c-3 -6 -8 -31 -10 -57 -2 -27 -8 -61 -15 -77 -6 -16 -9
-39 -7 -50 4 -20 4 -19 6 2 0 12 6 22 13 22 6 0 9 3 6 6 -4 3 2 24 12 47 28
66 34 103 16 110 -9 4 -18 2 -21 -3z"/>
<path d="M6712 8470 c0 -19 2 -27 5 -17 2 9 2 25 0 35 -3 9 -5 1 -5 -18z"/>
<path d="M9702 8325 c0 -38 4 -97 8 -130 l7 -60 1 80 c0 44 -3 103 -8 130 -7
50 -7 50 -8 -20z"/>
<path d="M6462 6605 c0 -16 2 -22 5 -12 2 9 2 23 0 30 -3 6 -5 -1 -5 -18z"/>
<path d="M4098 6537 c17 -18 46 -40 64 -50 27 -15 22 -8 -21 32 -60 56 -93 70
-43 18z"/>
<path d="M6446 6513 c-3 -21 -8 -63 -11 -93 -3 -30 -8 -68 -11 -85 -3 -23 -2
-26 5 -10 10 25 34 215 28 222 -3 2 -8 -13 -11 -34z"/>
<path d="M4248 6443 c6 -2 18 -2 25 0 6 3 1 5 -13 5 -14 0 -19 -2 -12 -5z"/>
<path d="M4170 6422 c0 -10 11 -29 25 -42 13 -12 22 -28 18 -34 -3 -6 -3 -8 1
-4 4 3 16 -2 25 -11 24 -24 164 -65 286 -85 243 -40 282 -47 315 -60 19 -8 70
-17 114 -21 44 -3 89 -13 102 -22 21 -13 29 -14 56 -2 18 7 46 12 63 11 55 -4
155 -26 155 -33 0 -15 79 -37 170 -48 52 -6 122 -16 155 -21 150 -26 377 -48
345 -34 -8 4 -21 12 -29 18 -11 9 -9 12 10 17 24 5 -47 25 -176 47 -40 7 -46
11 -30 17 11 5 26 17 33 27 7 10 18 16 23 13 5 -4 9 -1 9 4 0 6 8 11 18 12 45
2 -72 23 -388 69 -190 27 -428 63 -530 79 -404 64 -640 97 -640 89 0 -9 42
-53 68 -71 l27 -19 -49 6 c-27 3 -60 6 -73 6 -19 0 -28 10 -43 44 -21 50 -60
81 -60 48z m677 -168 c-3 -3 -12 -4 -19 -1 -8 3 -5 6 6 6 11 1 17 -2 13 -5z
m60 -10 c-3 -3 -12 -4 -19 -1 -8 3 -5 6 6 6 11 1 17 -2 13 -5z m278 -38 c28
-8 43 -15 35 -15 -21 -1 -194 29 -199 35 -10 9 115 -6 164 -20z m98 -23 c-7
-2 -21 -2 -30 0 -10 3 -4 5 12 5 17 0 24 -2 18 -5z m386 -59 c3 -4 -5 -4 -19
-1 -14 4 -36 7 -50 7 -18 0 -21 3 -11 9 13 9 68 -2 80 -15z"/>
<path d="M4295 6435 c17 -7 360 -55 381 -54 24 2 -30 11 -214 38 -132 19 -192
25 -167 16z"/>
<path d="M4713 6373 c9 -2 25 -2 35 0 9 3 1 5 -18 5 -19 0 -27 -2 -17 -5z"/>
<path d="M4805 6359 c22 -4 54 -8 70 -7 22 0 19 3 -15 9 -60 10 -108 9 -55 -2z"/>
<path d="M4945 6339 c22 -4 51 -8 65 -7 16 0 11 3 -15 9 -22 4 -51 8 -65 7
-16 0 -11 -3 15 -9z"/>
<path d="M5063 6323 c9 -2 23 -2 30 0 6 3 -1 5 -18 5 -16 0 -22 -2 -12 -5z"/>
<path d="M5123 6313 c9 -2 23 -2 30 0 6 3 -1 5 -18 5 -16 0 -22 -2 -12 -5z"/>
<path d="M5203 6303 c9 -2 23 -2 30 0 6 3 -1 5 -18 5 -16 0 -22 -2 -12 -5z"/>
<path d="M5263 6293 c9 -2 23 -2 30 0 6 3 -1 5 -18 5 -16 0 -22 -2 -12 -5z"/>
<path d="M5323 6283 c9 -2 25 -2 35 0 9 3 1 5 -18 5 -19 0 -27 -2 -17 -5z"/>
<path d="M5405 6270 c17 -4 44 -8 60 -8 25 0 24 2 -10 9 -51 10 -92 10 -50 -1z"/>
<path d="M5540 6249 c25 -4 59 -7 75 -7 22 0 18 3 -15 9 -25 4 -58 7 -75 7
-22 0 -18 -3 15 -9z"/>
<path d="M5663 6233 c9 -2 23 -2 30 0 6 3 -1 5 -18 5 -16 0 -22 -2 -12 -5z"/>
<path d="M5733 6223 c9 -2 25 -2 35 0 9 3 1 5 -18 5 -19 0 -27 -2 -17 -5z"/>
<path d="M5803 6213 c9 -2 23 -2 30 0 6 3 -1 5 -18 5 -16 0 -22 -2 -12 -5z"/>
<path d="M4333 5813 c-13 -2 -23 -9 -23 -15 0 -6 24 -7 67 -3 75 7 96 15 40
15 -19 0 -41 2 -49 4 -7 2 -23 1 -35 -1z"/>
<path d="M5323 5799 c-24 -4 -54 -16 -68 -26 -25 -18 -52 -76 -57 -123 l-3
-25 -155 0 -155 0 -20 42 c-30 63 -71 88 -173 106 -105 19 -212 31 -212 25 0
-3 8 -12 17 -19 15 -12 16 -12 8 1 -7 13 -6 13 7 2 9 -7 70 -30 137 -51 66
-21 133 -49 150 -62 84 -67 72 -64 241 -61 155 3 155 4 200 34 25 17 54 42 65
54 19 22 26 23 236 26 254 4 247 6 280 -104 l21 -68 51 0 c69 0 97 8 90 26 -6
15 8 17 45 7 18 -4 20 -8 10 -14 -18 -12 19 -11 166 2 66 5 131 7 144 4 24 -6
25 -8 18 -75 -3 -38 -2 -71 3 -74 5 -3 5 -25 0 -48 -4 -24 -8 -72 -9 -109 0
-37 -5 -70 -12 -77 -7 -7 -44 -12 -97 -12 -82 0 -84 -1 -67 -19 16 -18 15 -24
-24 -120 -22 -56 -40 -106 -40 -111 0 -6 42 -10 103 -10 95 0 105 -2 125 -23
20 -22 21 -29 15 -181 -4 -100 -10 -159 -17 -162 -6 -2 -388 -5 -849 -6 l-838
-3 2 57 c3 79 15 92 27 27 8 -46 10 -30 11 108 1 150 3 163 20 173 11 5 72 10
136 10 90 0 116 3 112 13 -90 229 -90 226 -13 228 22 1 55 5 71 9 19 5 -23 8
-110 9 -77 1 -147 6 -155 11 -10 6 -17 32 -20 72 -3 35 -9 62 -14 61 -12 -2
-46 -109 -46 -144 0 -15 -7 -32 -15 -39 -21 -17 -20 -6 10 102 15 50 24 92 21
95 -10 11 -44 -19 -56 -49 -6 -18 -24 -58 -38 -88 l-27 -55 0 -865 0 -865
-214 -3 c-121 -1 -219 2 -224 7 -5 5 -8 200 -8 465 1 251 -1 483 -5 516 -5 50
-8 57 -20 45 -9 -9 -34 -13 -65 -13 -40 1 -54 6 -64 22 -15 23 -123 332 -132
376 -4 23 0 32 22 46 15 10 49 45 76 78 45 56 47 61 32 78 -15 17 -14 18 10
18 31 0 34 11 11 46 -13 19 -20 22 -30 13 -20 -17 -17 -5 13 50 l27 48 -16
124 c-10 68 -20 153 -23 189 -8 80 -32 135 -76 175 -58 53 -90 58 -293 49 -99
-5 -205 -7 -235 -6 -41 3 -52 1 -49 -10 3 -8 19 -13 41 -13 27 0 39 -6 48 -22
12 -22 19 -23 133 -24 143 -1 225 -11 236 -29 8 -13 3 -404 -5 -428 -4 -11
-125 -13 -650 -11 -355 1 -647 0 -649 -2 -2 -2 -7 -64 -11 -137 l-7 -134 565
6 565 6 21 -27 c18 -21 20 -35 15 -69 -6 -40 7 -67 21 -44 3 5 16 15 27 21 18
10 16 4 -10 -29 -33 -41 -41 -82 -19 -100 6 -5 28 -13 47 -18 l35 -8 -40 -6
c-33 -4 -41 -9 -43 -29 -2 -13 6 -36 17 -52 l21 -29 -30 6 -30 7 0 -49 c0
-194 -34 -580 -60 -686 -46 -187 -160 -310 -318 -343 -143 -30 -620 -48 -663
-25 -11 7 -19 21 -19 38 0 29 -34 162 -73 284 -19 59 -22 81 -13 92 9 12 57
15 271 18 256 3 261 3 304 28 72 40 83 70 92 234 4 78 8 187 8 244 l1 102
-385 0 c-306 0 -385 -3 -385 -13 0 -35 -99 -306 -146 -401 -90 -180 -168 -287
-318 -444 -98 -101 -100 -115 -21 -110 22 2 42 -1 45 -6 7 -13 -60 -30 -72
-18 -5 5 -29 4 -58 -4 -61 -16 -70 -21 -70 -40 0 -15 -1 -15 -39 -19 -14 -1
-32 -11 -40 -21 -9 -11 -33 -25 -54 -32 -36 -13 -40 -12 -61 7 -29 28 -44 26
-56 -4 -9 -25 -40 -26 -40 -1 0 6 -33 43 -72 81 -40 39 -88 92 -106 118 -18
26 -39 47 -47 47 -19 0 -28 -34 -20 -79 6 -38 5 -39 -27 -46 -32 -8 -63 -35
-49 -45 4 -3 4 -18 0 -35 l-7 -30 -1 30 c-2 46 -24 65 -60 49 -9 -4 -26 -6
-38 -5 -13 1 -23 -2 -23 -8 0 -6 -8 -8 -17 -5 -10 3 1 -7 24 -22 26 -18 43
-38 47 -55 5 -26 8 -27 38 -19 58 15 155 22 162 12 13 -21 -143 -59 -175 -42
-18 10 -19 7 -19 -48 0 -65 -15 -87 -80 -116 -19 -8 -26 -14 -15 -13 27 3 33
-54 10 -90 -22 -32 -6 -46 45 -38 19 2 56 5 83 5 26 0 47 3 47 8 0 12 -59 34
-71 26 -8 -5 -9 -3 -4 6 6 10 4 12 -9 7 -14 -6 -15 -3 -6 13 6 11 16 20 22 20
7 0 7 4 -1 14 -8 10 -9 15 -1 18 6 2 2 12 -10 25 -11 12 -20 27 -20 32 0 13
122 51 162 51 19 0 41 -10 59 -27 27 -26 27 -28 11 -46 -16 -18 -16 -19 2 -29
15 -8 16 -12 5 -19 -11 -7 -10 -9 5 -9 11 0 27 -7 37 -16 14 -13 16 -21 8 -41
-5 -14 -8 -27 -7 -28 2 -1 44 -14 93 -29 105 -31 160 -57 198 -92 26 -24 33
-21 21 10 -3 8 -11 13 -18 10 -7 -3 -18 2 -25 10 -17 20 3 25 136 28 62 2 113
7 113 12 0 5 13 6 29 3 25 -5 30 -3 33 16 2 12 8 21 15 20 18 -4 26 60 8 70
-27 15 -6 27 48 28 29 1 45 3 36 6 -13 3 -6 14 27 49 24 25 44 48 44 52 1 10
89 74 130 94 19 10 46 18 60 18 22 1 23 2 6 9 -18 7 -18 8 -2 14 24 9 76 8
101 -3 14 -6 15 -9 5 -10 -9 0 -4 -7 12 -15 20 -11 35 -38 63 -110 20 -52 35
-100 33 -107 -2 -6 4 -20 14 -30 22 -22 23 -38 3 -38 -11 0 -15 -11 -15 -40 0
-22 3 -39 8 -39 39 6 44 -23 6 -40 -34 -15 -19 -35 39 -50 23 -6 48 -15 56
-20 20 -13 58 6 65 32 5 21 5 21 26 2 14 -12 19 -27 16 -39 -4 -16 1 -13 19 9
19 23 24 26 25 13 0 -10 4 -18 8 -18 15 0 33 -51 24 -64 -6 -7 -2 -22 9 -41
11 -16 19 -26 19 -21 0 5 10 1 22 -10 12 -10 18 -13 14 -6 -4 6 -3 12 3 12 6
0 8 7 5 15 -4 8 -15 15 -25 15 -10 0 -19 5 -19 11 0 5 4 7 10 4 6 -4 10 6 10
22 0 39 10 48 47 48 31 -1 45 -6 169 -59 68 -29 85 -31 101 -15 5 5 29 10 52
11 22 0 41 4 41 10 0 5 9 4 20 -2 11 -6 25 -8 30 -5 21 13 8 23 -40 29 -27 4
-52 10 -54 15 -8 12 26 20 124 28 47 3 79 8 72 11 -6 2 -12 13 -12 23 0 11 4
18 8 15 5 -3 15 6 22 19 7 14 21 25 31 25 10 0 21 5 24 11 4 6 13 8 20 5 7 -2
35 7 61 21 l49 25 -42 -6 c-24 -3 -43 -3 -43 -1 0 3 33 21 73 41 91 46 157 91
157 108 0 7 11 22 25 34 14 12 25 26 25 32 0 5 7 10 16 10 13 0 15 -8 10 -47
-11 -92 -5 -133 19 -133 11 0 15 12 15 49 0 45 3 53 33 74 59 45 77 51 96 33
10 -9 22 -13 27 -9 5 5 0 -2 -11 -15 -13 -16 -14 -21 -4 -18 10 4 25 -17 50
-69 30 -61 34 -75 20 -75 -12 -1 -10 -4 7 -13 23 -13 59 -57 46 -57 -4 0 1 -9
11 -20 10 -11 24 -20 30 -20 7 0 18 -7 25 -15 7 -8 36 -26 66 -40 30 -14 52
-30 49 -35 -11 -18 223 -16 305 1 25 6 78 7 118 3 64 -6 71 -8 60 -22 -11 -14
-10 -15 7 -8 11 4 47 9 80 11 59 4 59 4 32 -11 -23 -12 -27 -20 -22 -37 18
-56 17 -75 -4 -96 -12 -12 -17 -21 -13 -21 14 0 64 58 54 61 -15 6 -25 49 -12
49 6 0 8 6 5 13 -4 6 2 1 13 -12 l19 -24 17 24 16 23 0 -27 c0 -15 3 -26 8
-26 28 5 34 -3 29 -35 -5 -31 6 -56 24 -56 9 0 5 77 -4 86 -15 16 -7 44 13 44
11 0 19 3 19 8 -3 19 2 29 16 29 8 0 15 -7 15 -14 0 -10 10 -12 40 -9 22 3 40
1 40 -5 0 -5 -24 -10 -52 -11 -41 -1 -34 -3 32 -8 146 -12 307 2 400 35 25 9
40 10 40 4 0 -6 7 -3 16 5 17 18 28 21 20 7 -4 -5 0 -11 6 -14 17 -5 -38 -33
-95 -48 -26 -6 -47 -16 -47 -21 0 -5 5 -6 10 -3 6 3 10 -1 10 -9 0 -9 -4 -16
-10 -16 -19 0 -10 -16 10 -17 16 -1 20 4 20 28 0 32 25 41 33 12 4 -16 5 -16
6 1 1 15 4 16 16 6 15 -13 30 -7 30 11 0 12 6 13 33 5 12 -4 22 -12 22 -18 0
-16 -57 -68 -77 -70 -10 0 -23 -2 -30 -2 -20 -2 -27 -15 -10 -22 8 -3 47 10
85 30 l70 35 24 -28 c22 -27 77 -63 64 -43 -8 13 3 42 16 42 6 0 8 -13 6 -29
-2 -17 -1 -28 4 -25 4 3 8 16 8 29 0 33 16 39 34 14 13 -19 18 -20 30 -9 9 7
23 10 31 6 8 -3 15 -1 15 5 0 6 5 7 10 4 6 -3 10 -2 10 3 0 4 -33 21 -72 36
-40 16 -77 33 -83 39 -7 7 -6 8 2 3 7 -3 31 -8 55 -11 24 -2 69 -7 101 -11 61
-7 72 2 41 34 -16 15 -15 17 17 31 19 7 46 14 62 14 15 0 27 5 27 11 0 7 3 8
8 1 4 -6 19 -16 33 -22 22 -9 29 -8 42 4 12 13 19 14 30 5 8 -7 16 -9 19 -7
10 11 48 14 53 4 4 -5 21 -9 38 -9 55 0 77 -10 77 -35 0 -13 -9 -27 -22 -34
-19 -9 -12 -10 39 -6 39 4 62 2 65 -5 2 -7 24 -3 63 10 33 11 54 15 48 9 -11
-11 -61 -32 -103 -44 -50 -14 -73 -23 -58 -24 17 -1 35 -37 24 -48 -3 -4 -6 0
-6 9 0 8 -6 15 -14 15 -11 0 -12 -4 -3 -19 7 -10 18 -18 25 -18 7 0 10 -4 7
-10 -3 -5 0 -10 7 -10 7 -1 2 -7 -12 -16 -24 -14 -23 -14 20 -8 25 3 53 11 63
16 10 5 25 7 33 4 8 -3 14 -1 14 4 0 5 7 6 17 3 10 -4 14 -2 10 4 -3 5 0 10 8
11 8 1 22 3 30 4 8 1 15 6 15 11 0 6 3 7 7 4 11 -12 -29 -47 -54 -47 -17 0
-23 -6 -23 -21 0 -13 -4 -18 -12 -13 -10 6 -10 4 0 -7 16 -17 15 -39 -2 -39
-8 0 -16 -6 -19 -13 -3 -8 1 -14 9 -14 8 0 14 5 14 10 0 6 8 1 18 -11 l18 -21
52 40 c55 41 68 47 56 27 -4 -7 2 -5 13 4 11 10 25 18 31 18 15 0 16 17 1 25
-7 5 -5 13 6 25 13 14 14 23 6 39 -17 31 -14 33 28 26 37 -6 39 -5 34 14 -6
25 14 54 31 44 6 -4 5 1 -3 10 -7 9 -19 17 -26 17 -13 0 -41 28 -34 34 2 2 38
-2 79 -9 41 -8 93 -14 115 -14 l40 1 -32 9 c-37 11 -40 14 -17 23 10 4 13 2 8
-6 -4 -6 -3 -8 4 -4 14 9 11 45 -4 39 -6 -2 -14 5 -16 15 -4 13 -17 21 -39 25
-41 6 -150 46 -128 47 8 0 66 -7 129 -15 62 -8 164 -16 225 -17 115 -3 130
-11 42 -23 -40 -6 -50 -12 -58 -33 -5 -14 -8 -30 -6 -36 2 -6 -17 -16 -42 -22
l-46 -10 60 -8 c33 -4 88 -3 123 2 63 9 88 0 31 -12 -27 -5 -30 -9 -25 -30 3
-14 1 -37 -4 -52 l-11 -27 41 6 c22 3 40 1 40 -4 0 -5 -6 -9 -14 -9 -8 0 -24
-9 -37 -21 -13 -11 -18 -18 -11 -14 6 3 12 2 12 -4 0 -5 -6 -12 -12 -14 -10
-4 -10 -6 0 -6 6 -1 12 -7 12 -15 0 -9 -16 -16 -45 -20 -57 -9 -68 -26 -17
-26 23 0 45 -6 52 -15 14 -17 32 -11 24 9 -7 19 22 28 37 10 14 -17 15 -16
-36 -43 -55 -29 -24 -27 35 3 27 13 53 21 60 16 7 -4 21 -5 31 -3 10 3 19 0
19 -6 0 -6 -4 -11 -9 -11 -4 0 -24 -13 -42 -30 -19 -16 -45 -32 -59 -35 -78
-18 -109 -30 -113 -47 -5 -19 -27 -25 -27 -8 0 6 -4 10 -10 10 -5 0 -10 -7
-10 -15 0 -9 -11 -20 -25 -25 -14 -5 -25 -14 -25 -20 0 -6 5 -8 11 -4 7 4 10
1 7 -7 -2 -8 -19 -15 -36 -17 -31 -3 -32 -4 -27 -50 3 -26 0 -60 -6 -75 -9
-21 -9 -31 0 -40 8 -8 11 -5 11 11 0 13 7 36 15 51 15 30 109 111 128 111 8 0
7 4 0 11 -6 6 -9 18 -6 25 6 15 33 20 33 6 0 -10 54 -8 87 3 13 4 21 11 18 15
-2 4 16 8 41 9 25 0 54 5 63 11 17 9 59 18 94 19 9 1 17 8 17 17 0 12 4 14 13
7 10 -8 72 -11 72 -3 0 4 117 5 120 0 2 -3 34 -7 71 -8 79 -3 169 -41 186 -78
6 -13 14 -22 17 -20 10 7 71 -22 71 -34 0 -5 9 -10 20 -10 11 0 20 7 20 15 0
9 9 15 23 15 54 0 67 10 68 54 1 35 2 37 9 16 7 -21 8 -18 9 19 1 37 -1 42
-14 31 -8 -6 -19 -9 -25 -5 -5 3 -10 1 -10 -5 0 -6 -4 -9 -9 -5 -6 3 -14 -14
-19 -37 l-10 -43 -1 42 c-1 35 -4 42 -21 40 -11 -1 -20 -5 -20 -10 0 -4 -4 -5
-10 -2 -5 3 -10 0 -11 -7 0 -7 -4 -4 -9 7 -5 11 -9 15 -9 8 -1 -20 -122 -2
-186 27 -11 5 -38 11 -60 14 -67 8 -169 32 -194 45 -22 12 -23 12 -17 -5 5
-17 5 -17 -9 1 -12 15 -19 17 -33 9 -20 -13 -48 8 -36 28 4 7 3 8 -4 4 -7 -4
-12 -1 -12 9 0 12 -4 14 -19 6 -15 -9 -20 -7 -24 9 -7 29 4 102 20 126 14 22
93 59 93 43 0 -5 4 -9 9 -9 5 0 7 9 4 20 -4 14 0 20 11 20 9 0 16 -4 16 -10 0
-5 5 -10 10 -10 6 0 10 7 10 15 0 8 8 16 18 16 48 3 75 9 86 18 15 12 145 33
158 25 5 -3 15 0 23 6 10 8 30 10 57 6 26 -4 44 -3 48 4 5 8 15 8 34 -1 23
-11 30 -10 56 10 28 20 31 21 54 5 14 -8 33 -14 43 -12 14 3 11 8 -15 22 -33
17 -41 47 -14 52 7 1 8 0 2 -3 -5 -2 -10 -9 -10 -14 0 -5 14 -3 30 6 17 9 30
14 31 13 0 -2 1 -22 2 -45 1 -45 -6 -41 97 -60 14 -2 59 -15 100 -29 41 -13
75 -24 75 -24 1 0 1 47 1 105 0 88 -2 105 -15 105 -9 1 5 12 30 25 25 13 51
30 57 38 7 8 39 25 72 37 57 21 71 40 30 40 -17 0 -47 36 -38 45 2 2 23 1 47
-2 31 -4 45 -11 48 -24 7 -24 45 -26 41 -3 -2 10 3 19 10 21 6 3 12 -3 12 -12
0 -24 24 -13 28 13 4 28 22 29 22 2 0 -17 5 -19 43 -16 23 3 98 8 167 11 123
7 127 7 250 -28 69 -20 147 -46 174 -58 159 -70 116 -186 -99 -266 -33 -13
-67 -23 -76 -23 -9 0 -19 -9 -22 -21 -3 -12 -10 -18 -16 -14 -6 3 -11 -2 -12
-12 0 -10 -3 -13 -6 -5 -9 22 -23 13 -24 -15 l-1 -28 -9 25 c-6 18 -7 14 -3
-17 5 -40 4 -43 -23 -48 -15 -4 -46 -13 -68 -20 l-40 -13 61 -1 c33 -1 84 6
113 15 29 8 55 13 59 10 9 -10 -66 -36 -105 -36 -21 0 -43 -4 -49 -8 -6 -4
-12 -34 -13 -66 l-3 -59 36 7 c92 16 111 17 95 7 -9 -6 -25 -12 -35 -14 -91
-16 -204 -43 -204 -49 0 -4 -6 -8 -14 -8 -8 0 -18 -9 -21 -20 -3 -11 -13 -20
-21 -20 -8 0 -14 -7 -14 -15 0 -8 6 -15 13 -15 8 0 7 -4 -3 -10 -8 -5 -29 -10
-46 -10 -24 0 -34 -6 -39 -22 -7 -22 -8 -22 -12 -3 -3 15 -17 25 -51 34 -81
22 -149 49 -192 76 -44 28 -74 79 -60 105 19 35 11 121 -9 93 -15 -21 -118
-78 -173 -97 -11 -3 -18 -16 -19 -33 l-1 -28 -7 25 c-8 26 -20 28 -67 10 -27
-11 -31 -37 -9 -66 14 -18 14 -18 15 6 1 25 1 25 10 2 5 -12 16 -22 25 -22 18
0 20 -17 3 -23 -20 -6 133 -8 173 -1 24 3 40 13 48 27 10 20 10 20 5 -6 -7
-30 11 -37 30 -13 15 19 56 3 63 -24 3 -11 17 -23 32 -26 14 -4 31 -11 37 -16
6 -4 19 -5 29 -2 10 4 20 1 25 -6 6 -10 12 -11 22 -2 8 6 19 7 28 2 12 -7 11
-12 -4 -29 -17 -19 -17 -22 -1 -66 17 -44 17 -47 -1 -88 -10 -23 -23 -45 -28
-49 -5 -3 -15 -19 -22 -35 -10 -23 -13 -24 -13 -8 -1 20 -2 20 -19 -1 -9 -12
-25 -24 -34 -27 -14 -5 -18 -19 -20 -54 l-1 -48 -7 45 c-5 34 -8 41 -14 27 -5
-9 -5 -34 -1 -55 4 -20 3 -33 -1 -29 -5 4 -11 29 -15 55 l-6 47 -2 -42 c-1
-35 -5 -43 -20 -43 -12 0 -21 -9 -25 -25 -10 -38 -26 -20 -26 28 0 31 -3 38
-10 27 -9 -13 -11 -13 -20 0 -8 13 -11 11 -16 -7 -5 -17 -10 -20 -23 -14 -31
15 -65 -2 -75 -39 -14 -51 -43 -62 -49 -19 -2 8 -9 29 -16 47 -10 25 -17 30
-27 21 -8 -6 -30 -8 -58 -4 -40 6 -46 5 -46 -10 0 -10 18 -34 40 -54 l39 -36
-5 -75 c-8 -110 -10 -116 -61 -155 -43 -32 -48 -34 -54 -18 -7 15 -8 15 -8 -4
-1 -22 -13 -27 -58 -26 -7 1 -13 -4 -13 -9 0 -6 -6 -8 -14 -5 -7 3 -18 1 -24
-5 -16 -16 -262 -23 -334 -8 -35 6 -70 14 -78 17 -8 4 -23 8 -33 10 -24 4
-137 62 -159 81 -14 12 -18 31 -18 89 l0 73 -56 0 -56 0 4 -60 c3 -69 13 -64
-117 -60 -109 2 -305 55 -305 81 0 14 -26 10 -40 -5 -9 -12 -4 -19 29 -36 23
-11 41 -17 41 -13 0 4 7 -3 16 -15 8 -12 24 -22 34 -22 10 0 20 -4 22 -9 6
-16 176 -69 187 -58 6 6 17 4 32 -7 21 -14 24 -14 41 1 10 9 21 13 26 9 4 -4
-2 -14 -13 -23 -19 -14 -17 -14 20 -8 35 5 44 3 65 -20 15 -16 30 -23 42 -19
17 5 26 -10 11 -19 -5 -2 -1 -1 7 2 26 8 81 3 96 -10 9 -7 40 -16 69 -20 52
-7 174 -40 223 -60 17 -7 21 -6 16 3 -5 8 -2 9 12 4 10 -5 24 -8 29 -8 6 0 32
1 58 3 33 1 52 -2 58 -12 5 -8 9 -10 9 -5 0 4 11 1 25 -8 23 -15 24 -15 18 1
-5 13 -2 15 14 11 13 -3 25 1 33 13 9 12 19 15 29 10 9 -4 31 -7 49 -6 24 0
31 -3 27 -14 -5 -11 -3 -12 10 -1 9 7 18 10 22 7 3 -4 12 -2 19 4 18 15 36 1
29 -22 -4 -11 -3 -19 2 -18 21 4 33 -2 33 -17 0 -18 23 -44 40 -44 8 0 8 6 0
21 -6 11 -9 25 -6 32 2 7 8 2 11 -10 9 -28 25 -30 25 -3 0 11 5 20 10 20 6 0
10 13 10 30 0 21 -4 28 -14 24 -7 -3 -13 -12 -12 -21 0 -9 -4 -18 -11 -20 -7
-2 -10 3 -8 14 2 10 4 24 4 31 1 7 6 10 13 6 6 -4 8 -3 5 3 -4 5 5 20 18 31
20 17 30 20 50 12 30 -11 43 3 23 28 -12 15 -11 15 14 -1 35 -22 41 -21 33 3
-4 11 -2 20 4 20 6 0 11 -5 11 -10 0 -7 6 -7 20 0 17 9 20 8 20 -10 0 -18 10
-25 33 -21 4 0 7 -3 7 -7 0 -5 6 -9 13 -9 6 0 20 -4 31 -8 15 -7 17 -5 11 13
-4 13 -2 22 4 22 6 0 11 -6 11 -13 0 -8 9 -22 20 -32 11 -10 20 -13 20 -7 0 6
-4 14 -10 17 -5 3 -10 11 -10 17 0 6 8 4 18 -5 24 -22 32 -21 32 1 0 12 2 14
9 4 4 -7 7 -26 6 -42 -1 -22 3 -30 16 -30 28 0 32 -31 8 -57 -18 -18 -19 -23
-7 -23 9 0 19 6 21 13 4 7 6 6 6 -4 1 -18 -22 -42 -31 -34 -3 3 -19 -10 -36
-29 -17 -20 -34 -31 -37 -26 -3 6 -4 14 -1 18 2 4 1 14 -5 22 -6 11 -9 8 -9
-12 0 -21 -4 -26 -16 -21 -13 5 -15 2 -9 -15 7 -25 -12 -31 -21 -7 -5 12 -9
13 -20 4 -19 -16 -30 -3 -14 16 12 15 0 22 -14 7 -4 -4 -13 -7 -19 -7 -7 0
-11 -12 -9 -28 3 -33 -11 -35 -26 -4 l-11 22 0 -22 c-1 -28 -21 -31 -21 -4 0
11 -4 23 -10 26 -6 4 -10 -6 -10 -24 0 -21 -6 -32 -20 -36 -11 -3 -19 -9 -18
-13 3 -13 -13 -52 -22 -52 -4 0 -11 7 -14 16 -9 22 -8 24 9 18 8 -4 15 -1 15
5 0 6 -4 11 -10 11 -5 0 -10 5 -10 10 0 6 9 10 20 10 11 0 20 4 20 10 0 5 -7
7 -15 4 -10 -4 -15 0 -15 15 0 12 -6 21 -13 21 -7 0 -18 9 -25 20 -17 27 -44
25 -75 -6 -23 -23 -28 -24 -33 -10 -10 25 -24 19 -25 -11 0 -16 -4 -37 -9 -48
-7 -15 -9 -8 -11 30 -1 32 -3 40 -6 22 -3 -19 -9 -27 -18 -23 -10 3 -23 -14
-41 -53 -29 -66 -77 -120 -89 -101 -4 7 -1 16 6 21 9 6 10 9 2 9 -6 0 -15 -4
-18 -10 -8 -13 -45 -13 -45 1 0 6 9 8 20 4 11 -4 20 -2 20 4 0 6 -5 11 -11 11
-5 0 -7 5 -3 11 5 8 1 8 -13 0 -14 -7 -23 -7 -31 1 -8 8 -10 6 -6 -8 6 -23
-39 -46 -76 -39 l-25 4 23 -16 c25 -18 30 -53 6 -53 -8 0 -13 4 -10 8 2 4 1
14 -4 21 -6 11 -12 11 -31 -3 -18 -12 -19 -16 -7 -16 9 0 19 6 21 13 3 7 6 5
6 -6 1 -10 -6 -20 -14 -23 -9 -4 -12 -15 -9 -33 4 -19 0 -32 -12 -41 -15 -13
-16 -13 -10 7 4 12 2 24 -3 28 -7 4 -8 0 -4 -11 5 -13 2 -15 -17 -9 l-24 8 18
-28 c10 -15 13 -24 6 -20 -7 4 -16 2 -20 -5 -5 -9 -9 -9 -14 -1 -4 6 -2 11 3
11 6 0 11 5 11 11 0 6 -9 8 -20 4 -21 -7 -28 10 -7 18 6 3 -3 4 -20 3 -18 -2
-33 0 -33 3 0 4 -15 7 -32 8 -18 1 -48 4 -65 6 -18 3 -33 1 -33 -4 0 -5 -5 -9
-11 -9 -5 0 -7 5 -4 10 9 14 -8 13 -23 -2 -9 -9 -12 -9 -12 2 0 11 -4 10 -17
-3 -16 -16 -16 -19 1 -50 12 -23 13 -26 2 -13 -16 19 -16 19 -16 -3 0 -13 -4
-20 -11 -15 -6 3 -9 17 -6 30 5 30 4 30 -26 0 -17 -17 -28 -21 -35 -14 -6 6
-12 5 -17 -4 -5 -7 -5 -10 0 -6 4 4 14 0 21 -10 9 -13 9 -19 1 -25 -8 -6 -7
-7 3 -4 8 2 15 11 15 20 0 8 4 19 8 24 5 4 7 -27 5 -70 -2 -65 -5 -74 -16 -60
-6 9 -9 26 -6 37 6 18 5 19 -9 8 -14 -12 -16 -10 -15 17 1 17 -5 37 -12 46
-22 26 -30 16 -14 -20 16 -40 17 -45 6 -45 -5 0 -13 10 -18 23 -6 12 -9 17 -8
11 3 -16 -43 -9 -60 9 -16 15 -70 12 -60 -4 3 -5 2 -19 -1 -30 -5 -16 -9 -18
-15 -9 -5 7 -6 19 -3 27 6 16 -33 18 -43 1 -4 -6 -3 -8 3 -5 12 7 39 -50 29
-60 -3 -3 -6 0 -6 8 0 21 -41 44 -50 29 -4 -6 -10 -11 -14 -11 -25 3 -35 -2
-41 -19 -4 -11 -11 -18 -16 -15 -15 10 -10 -7 8 -27 10 -12 12 -18 4 -18 -7 0
-10 -4 -6 -9 3 -5 18 -10 33 -10 15 0 43 -4 62 -10 34 -9 34 -9 -20 -11 -30
-1 -62 -1 -70 0 -8 1 -22 3 -30 4 -8 0 -18 5 -22 11 -4 6 -25 3 -55 -8 -40
-14 -71 -16 -183 -11 -74 3 -141 7 -147 9 -7 3 -13 0 -13 -6 0 -7 -13 -9 -32
-6 -18 3 -91 2 -163 -2 -86 -5 91 -9 530 -11 1170 -6 1146 -7 1359 46 172 43
378 133 494 214 277 195 381 298 524 522 50 78 155 300 164 347 6 26 3 29 -34
35 -36 5 -52 20 -52 47 0 15 17 10 57 -16 l37 -26 12 24 c18 34 51 207 59 310
l7 88 -35 -17 c-29 -14 -43 -15 -79 -6 -29 8 -44 8 -47 1 -1 -5 -10 -2 -18 8
-13 17 -14 16 -9 -7 3 -14 6 -41 7 -60 0 -19 3 -29 6 -22 6 16 23 5 23 -16 0
-10 -3 -13 -8 -7 -4 6 -14 10 -22 10 -8 -1 -23 2 -32 7 -14 7 -16 3 -11 -24 3
-24 -1 -40 -16 -59 -23 -30 -168 -109 -200 -109 -12 0 -21 -6 -21 -12 -1 -7
-9 -31 -20 -53 -12 -24 -19 -62 -20 -96 0 -45 -4 -60 -23 -77 -40 -38 -50 -29
-45 41 3 49 1 64 -10 64 -10 0 -13 -16 -10 -69 3 -59 1 -68 -14 -68 -13 0 -18
8 -17 28 l1 27 8 -25 c6 -19 8 -11 9 33 1 44 -2 57 -14 57 -12 0 -15 -15 -17
-67 l-2 -68 -6 70 c-6 79 -18 69 -23 -20 l-3 -60 -2 63 c-2 63 -6 69 -31 53
-18 -11 -32 -99 -17 -104 17 -6 4 -15 -32 -22 -19 -3 -32 -1 -32 5 0 5 7 10
15 10 11 0 15 11 15 40 0 40 -15 55 -23 23 -4 -16 -5 -16 -6 0 -2 29 -26 14
-29 -19 -7 -56 -34 -66 -52 -18 -5 13 -14 24 -19 24 -14 0 -51 -41 -51 -57 0
-7 -7 -13 -15 -13 -8 0 -15 8 -15 19 0 27 -41 36 -47 10 -7 -27 -27 -24 -43 7
-12 22 -16 24 -26 10 -15 -22 -24 -20 -24 5 0 11 -5 17 -10 14 -6 -4 -10 13
-10 44 0 49 -1 50 -35 57 -19 3 -38 10 -41 15 -4 8 19 6 79 -6 9 -2 17 3 17
11 0 10 13 14 43 14 28 0 37 3 28 9 -11 7 -5 12 22 19 35 10 79 38 146 95 18
16 44 33 58 38 21 8 24 13 18 39 -6 28 -4 30 22 30 18 0 23 3 15 8 -9 6 -6 12
13 22 20 11 22 15 10 24 -7 6 -15 25 -17 41 -3 26 1 31 32 41 27 9 30 12 13
13 -13 1 -23 6 -23 12 0 16 266 6 303 -12 24 -11 30 -11 38 2 12 20 11 26 -6
26 -8 0 -12 -5 -9 -11 3 -6 -2 -2 -10 8 -22 27 -21 88 2 102 12 8 19 26 20 55
2 24 7 46 13 47 5 2 9 8 9 13 0 15 51 57 83 68 34 12 46 -7 28 -45 -6 -14 -11
-29 -11 -34 0 -19 33 -10 56 15 13 14 28 25 35 25 6 0 9 6 6 14 -7 18 28 52
38 37 3 -6 4 -15 1 -20 -3 -4 6 -6 19 -3 14 2 25 11 25 19 0 24 23 -6 38 -49
19 -55 20 -197 2 -208 -9 -6 -10 -10 -3 -10 6 0 18 -3 27 -6 15 -6 16 66 16
766 l0 771 -47 -6 c-69 -9 -73 -12 -73 -42 0 -26 -19 -71 -20 -48 0 6 -5 2
-11 -7 -5 -10 -17 -18 -24 -18 -8 0 -15 -4 -15 -9 0 -12 72 -22 109 -15 19 4
31 2 31 -4 0 -14 -35 -26 -83 -30 -37 -4 10 -32 52 -32 44 0 59 -13 41 -35 -9
-11 -30 -13 -96 -8 -68 5 -84 3 -84 -8 0 -11 -2 -11 -10 1 -8 12 -11 13 -19 1
-7 -11 -9 -11 -14 0 -4 11 -6 11 -6 1 -1 -7 -5 -10 -11 -7 -6 4 -10 -8 -10
-30 0 -22 -4 -34 -10 -30 -6 4 -8 11 -5 16 4 5 1 9 -4 9 -6 0 -11 -4 -11 -9 0
-5 -8 -11 -17 -13 -29 -6 123 -38 214 -45 60 -4 80 -9 68 -15 -9 -5 -33 -9
-53 -7 -20 1 -65 1 -99 0 -53 -1 -63 -4 -64 -18 0 -15 -2 -15 -9 2 -7 19 -9
18 -19 -8 -6 -16 -11 -33 -11 -39 0 -5 -7 -7 -16 -4 -9 3 -19 6 -24 6 -5 0
-10 12 -12 28 l-4 27 -12 -29 c-7 -16 -11 -30 -9 -32 11 -11 202 -44 262 -45
68 -1 69 -1 33 -13 -20 -6 -73 -11 -117 -11 -45 0 -81 -3 -81 -7 0 -5 -5 -8
-11 -8 -5 0 -8 4 -5 9 5 8 -38 21 -70 21 -20 0 -17 -29 4 -37 9 -4 22 -12 27
-19 6 -7 26 -15 45 -17 33 -4 33 -4 -7 -5 -31 -2 -43 -6 -43 -17 0 -18 -16
-20 -26 -4 -5 8 -10 6 -16 -5 -13 -23 -60 -12 -96 22 -16 15 -38 35 -50 45
-18 14 -20 21 -12 36 5 11 10 29 10 40 0 24 28 29 48 9 9 -9 12 -9 12 0 0 6
-8 16 -17 21 -25 15 -6 13 50 -4 46 -14 47 -14 47 7 0 16 -3 19 -11 11 -17
-17 -80 4 -135 46 l-49 37 2 77 c1 83 12 107 48 107 19 0 23 -7 28 -41 3 -22
13 -49 23 -60 23 -26 28 -18 9 17 -8 16 -15 38 -15 48 0 11 -12 35 -27 55 -14
20 -27 37 -29 39 -1 2 -16 -4 -34 -13 -17 -9 -41 -15 -53 -13 -12 1 -28 -1
-35 -6 -21 -13 -71 -16 -78 -5 -11 18 12 31 59 33 25 1 49 5 53 9 4 4 19 7 32
7 14 0 34 7 44 17 15 13 24 14 53 6 52 -16 43 -8 -24 22 -67 30 -82 53 -90
135 -4 36 -10 54 -19 53 -6 -2 -12 4 -12 12 0 8 5 15 10 15 17 0 11 21 -11 39
-19 15 -20 20 -9 38 13 19 35 33 113 67 48 21 47 21 47 -10 0 -25 2 -26 33
-20 130 27 398 37 436 17 11 -6 24 -11 30 -11 8 0 11 128 11 415 0 228 -2 415
-5 415 -3 0 -13 -4 -23 -10 -9 -5 -36 -14 -59 -20 -30 -7 -43 -16 -43 -28 0
-13 -2 -14 -8 -4 -14 21 -40 3 -46 -33 -7 -37 -20 -45 -79 -46 -23 -1 -53 -5
-67 -9 -16 -5 21 -8 98 -9 70 -1 122 -5 122 -11 0 -10 -54 -27 -117 -37 -36
-5 -43 -9 -43 -29 0 -42 10 -54 47 -54 56 0 122 21 146 46 24 26 47 31 47 12
-1 -24 -25 -44 -65 -53 -31 -8 -41 -15 -43 -34 -3 -15 3 -30 14 -38 22 -16 19
-19 -33 -27 -38 -5 -41 -4 -36 14 5 20 23 28 23 10 0 -5 5 -10 10 -10 6 0 9
11 7 25 -4 31 -17 45 -18 19 0 -10 -3 -13 -6 -6 -2 6 -11 12 -18 12 -16 0 -29
-35 -19 -51 9 -14 -14 -29 -46 -29 -16 0 -20 3 -13 8 13 8 6 52 -8 52 -5 0 -9
-13 -9 -30 0 -29 -2 -30 -44 -30 -68 0 -106 10 -106 29 0 14 -2 14 -10 1 -8
-12 -13 -11 -39 7 -22 17 -30 19 -34 9 -15 -40 188 -74 326 -56 101 14 125 24
137 55 5 14 12 25 15 25 4 0 3 -5 0 -11 -4 -6 1 -17 11 -24 17 -12 17 -15 4
-28 -15 -14 -140 -47 -178 -47 -49 0 -67 -25 -37 -50 21 -18 19 -35 -7 -49
-19 -9 -13 -11 40 -6 78 6 81 -8 5 -24 -106 -22 -108 -24 -111 -59 -2 -17 -7
-32 -11 -32 -4 0 -5 15 -3 34 4 31 1 35 -27 41 -41 9 -48 22 -17 36 23 11 24
13 11 33 -8 11 -15 30 -15 42 0 18 -17 34 -36 34 -2 0 -4 -13 -4 -29 0 -23 -9
-36 -37 -57 -21 -16 -44 -35 -50 -43 -7 -8 -13 -11 -13 -7 0 5 -7 3 -15 -4 -8
-7 -16 -29 -17 -49 l-1 -36 -4 33 c-2 17 -8 32 -14 32 -5 0 -9 -15 -10 -32 -1
-31 -1 -32 -9 -8 -7 20 -14 13 -12 -11 1 -3 -6 -6 -14 -6 -9 0 -14 11 -14 29
l0 28 -76 0 c-66 0 -75 2 -72 17 2 10 16 21 33 24 30 7 30 7 -6 8 l-35 1 7 58
c4 39 2 68 -7 91 -20 48 -18 54 15 49 17 -2 28 -1 25 4 -3 4 -13 8 -22 8 -9 0
-24 5 -32 10 -10 8 15 9 83 6 l98 -5 -31 29 c-32 30 -44 64 -14 39 13 -11 12
-3 -5 29 -21 42 -22 45 -5 70 17 25 17 26 25 5 10 -27 29 -39 29 -18 0 10 5
13 13 9 6 -4 4 2 -5 13 -21 23 -25 78 -5 68 6 -4 1 2 -13 13 l-24 20 -11 -21
c-13 -28 -51 -34 -75 -12 -12 11 -29 16 -45 13 -19 -4 -25 -1 -25 12 0 13 16
20 70 30 65 12 70 15 70 39 0 32 -14 56 -28 47 -6 -3 -13 -2 -17 4 -3 5 -2 10
3 10 5 0 5 26 0 62 -8 58 -7 63 18 89 20 21 34 27 60 24 19 -1 34 1 34 4 0 4
12 12 28 19 l27 12 -27 -5 c-16 -3 -39 -8 -53 -11 -21 -5 -25 -3 -25 15 0 15
-6 21 -24 21 -46 0 -50 18 -53 238 -3 230 -15 297 -60 332 -25 19 -41 20 -475
20 -297 0 -447 -3 -443 -10 3 -5 45 -10 93 -10 98 0 140 -14 76 -25 -21 -4
-55 -11 -74 -15 -19 -4 135 -8 346 -9 349 -1 382 -2 397 -18 13 -15 16 -50 16
-212 0 -128 -3 -199 -10 -208 -9 -10 -99 -13 -458 -13 l-447 0 -1 -100 -2
-101 396 2 396 2 22 -26 23 -26 -2 -508 c-1 -498 -1 -509 -23 -573 -27 -76
-82 -153 -138 -191 -67 -46 -213 -79 -347 -79 -83 0 -107 19 -99 79 2 7 -2 10
-8 6 -6 -3 -9 0 -5 8 3 8 -14 56 -37 108 -70 160 -75 175 -60 193 11 13 34 16
108 16 52 0 103 5 114 11 38 20 41 52 34 317 l-7 252 -178 0 -177 0 -5 -87
c-2 -49 -4 -124 -3 -168 5 -392 5 -907 0 -915 -8 -12 -451 -14 -459 -1 -3 4
-6 267 -7 584 l-2 576 -71 6 c-39 3 -111 4 -161 1 l-90 -4 -3 -443 c-1 -306
-6 -446 -13 -456 -16 -18 -419 -19 -437 -1 -9 9 -12 170 -12 665 l0 653 27 6
c14 4 105 4 201 1 96 -3 259 -3 363 0 l189 6 0 39 c0 36 -2 38 -31 38 -17 0
-28 -4 -24 -10 3 -5 2 -10 -4 -10 -5 0 -11 5 -13 10 -2 6 -34 13 -71 17 -37 3
-70 9 -72 13 -3 4 37 8 88 9 98 2 97 2 115 44 l12 28 -418 -5 c-229 -2 -439
-6 -467 -8 -47 -3 -50 -2 -53 23 -2 17 5 34 22 50 25 23 26 27 26 165 0 77 -4
144 -9 150 -6 5 -3 23 7 44 l17 35 345 5 c212 3 332 8 313 13 -55 14 -38 24
52 32 47 4 85 11 85 16 0 5 -176 9 -425 9 -463 0 -471 -1 -514 -56 -12 -16
-25 -42 -28 -57 l-6 -30 -17 23 c-16 21 -23 22 -258 27 l-242 6 -33 66 c-27
55 -39 70 -77 89 -42 21 -56 22 -240 21 -107 -1 -214 -5 -237 -10z m-1433
-411 c0 -108 -4 -208 -9 -221 -17 -45 -51 -67 -100 -67 -35 0 -49 5 -59 20
-11 19 -10 20 33 20 35 0 52 6 70 25 27 26 26 20 30 330 1 39 5 81 9 94 18 52
26 -10 26 -201z m2560 -148 c0 -38 -4 -70 -8 -70 -5 0 -8 14 -7 30 1 17 2 48
3 70 3 67 12 45 12 -30z m-10 -94 c0 -8 -10 -27 -23 -41 -18 -21 -29 -26 -57
-23 -29 3 -31 5 -15 12 63 24 85 37 85 51 0 8 2 15 5 15 3 0 5 -6 5 -14z m595
-36 l60 -7 -80 -2 c-44 0 -138 -3 -210 -6 -119 -5 -127 -4 -100 9 33 17 221
20 330 6z m-3468 -6 c-3 -3 -12 -4 -19 -1 -8 3 -5 6 6 6 11 1 17 -2 13 -5z
m66 -1 c-7 -2 -19 -2 -25 0 -7 3 -2 5 12 5 14 0 19 -2 13 -5z m80 0 c-7 -2
-21 -2 -30 0 -10 3 -4 5 12 5 17 0 24 -2 18 -5z m2919 -303 l-7 -65 -5 55 c-3
30 -3 73 -1 95 l4 40 8 -30 c5 -16 6 -59 1 -95z m-115 48 c15 -26 13 -52 -7
-73 -11 -12 -24 -42 -29 -66 -8 -38 -9 -30 -10 54 -1 90 0 97 18 97 11 0 23
-6 28 -12z m2380 -80 c-3 -7 -5 -2 -5 12 0 14 2 19 5 13 2 -7 2 -19 0 -25z
m132 -216 c8 -16 5 -18 -27 -20 -44 -3 -100 17 -80 29 25 17 97 10 107 -9z
m-2390 -522 c5 -195 13 -363 16 -373 16 -40 54 -47 261 -47 193 0 197 0 225
-24 20 -17 25 -27 17 -32 -7 -4 -121 -10 -254 -12 l-242 -5 -26 26 c-15 15
-29 41 -33 59 -6 31 -6 31 -16 7 -9 -23 -9 -23 -17 -4 -12 27 -12 95 -1 95 5
0 12 -10 16 -22 12 -34 22 120 31 477 10 348 10 347 23 -145z m2258 298 c-2
-29 -3 -6 -3 52 0 58 1 81 3 53 2 -29 2 -77 0 -105z m-2627 114 l22 -18 -1
-495 c-1 -272 -5 -497 -9 -501 -9 -9 -1458 -12 -1472 -3 -13 8 -14 984 0 1005
8 13 98 16 677 20 367 3 689 6 714 8 33 1 53 -3 69 -16z m3242 -134 c-8 -8 -9
-4 -5 13 4 13 8 18 11 10 2 -7 -1 -18 -6 -23z m108 -18 c0 -5 -5 -10 -11 -10
-5 0 -7 5 -4 10 3 6 8 10 11 10 2 0 4 -4 4 -10z m-723 -52 c-3 -8 -6 -5 -6 6
-1 11 2 17 5 13 3 -3 4 -12 1 -19z m-5942 3 c50 -5 84 -9 77 -9 -7 -1 -10 -7
-7 -13 5 -7 -69 -10 -247 -8 -242 2 -267 5 -268 32 0 9 324 7 445 -2z m5942
-108 c-2 -16 -4 -5 -4 22 0 28 2 40 4 28 2 -13 2 -35 0 -50z m649 -8 c-54 -41
-323 -29 -282 12 11 11 279 20 291 10 6 -5 3 -13 -9 -22z m-448 -18 c-25 -26
-168 -56 -168 -36 0 5 6 9 13 10 30 2 71 11 105 23 52 19 67 20 50 3z m-2703
-682 c-7 -49 -35 -98 -69 -120 -23 -15 -95 -17 -793 -15 -708 1 -769 2 -786
18 -31 28 -47 68 -46 114 l1 43 11 -39 c7 -21 25 -48 40 -60 28 -21 32 -21
770 -21 835 0 806 -2 838 69 16 36 19 67 19 261 0 121 3 265 8 320 5 76 8 26
10 -215 2 -173 0 -333 -3 -355z m2502 633 c-3 -8 -6 -5 -6 6 -1 11 2 17 5 13
3 -3 4 -12 1 -19z m-4857 -334 c7 -294 9 -338 24 -352 15 -15 50 -17 284 -20
147 -1 272 1 279 5 11 8 32 128 35 206 0 23 4 -3 8 -58 10 -123 0 -173 -37
-202 -27 -22 -34 -23 -279 -23 -240 0 -253 1 -278 21 -42 33 -55 71 -63 181
-4 57 -9 92 -11 78 -2 -13 -10 -29 -18 -35 -11 -8 -15 -37 -15 -127 0 -85 -3
-118 -13 -121 -14 -6 -40 29 -31 42 3 5 -2 11 -9 14 -8 3 -18 27 -22 52 -5 34
-9 43 -16 34 -7 -10 -8 -6 -3 11 4 14 12 63 17 110 9 75 14 88 40 113 34 31
38 33 38 12 0 -8 9 -19 20 -25 16 -9 20 -8 21 7 1 10 2 29 3 43 1 14 3 106 4
204 1 99 5 176 9 173 3 -4 9 -158 13 -343z m3220 -20 c-8 -31 -9 -19 -5 61 3
55 6 147 7 205 2 74 3 55 5 -61 2 -91 -1 -183 -7 -205z m-4280 287 c0 -26
-207 -50 -430 -51 -72 0 -124 -5 -140 -13 -45 -22 -39 -86 26 -297 79 -259 56
-242 313 -236 433 11 522 26 653 113 69 45 101 83 179 211 24 39 49 72 55 72
7 0 15 12 18 26 13 50 18 15 6 -38 -53 -227 -181 -371 -377 -423 -64 -17 -501
-39 -661 -33 -91 3 -95 4 -118 33 -31 39 -78 189 -138 447 -25 107 -19 144 27
170 30 18 587 35 587 19z m4443 -442 c7 -169 10 -186 35 -193 10 -3 133 -6
276 -8 l259 -3 15 23 c11 17 17 63 22 165 l7 142 1 -147 c2 -146 2 -147 -25
-179 -47 -55 -68 -59 -333 -59 -228 0 -241 1 -260 20 -38 38 -42 67 -35 230
11 262 28 266 38 9z m-3463 161 c0 -5 -2 -10 -4 -10 -3 0 -8 5 -11 10 -3 6 -1
10 4 10 6 0 11 -4 11 -10z m5068 3 c-15 -2 -42 -2 -60 0 -18 2 -6 4 27 4 33 0
48 -2 33 -4z m59 1 c-3 -3 -12 -4 -19 -1 -8 3 -5 6 6 6 11 1 17 -2 13 -5z
m-5418 -102 c-27 -173 -112 -288 -269 -367 -115 -58 -174 -65 -492 -63 -317 2
-312 4 52 17 327 13 403 34 529 147 48 43 49 46 46 94 -3 47 -1 51 41 92 24
23 51 60 60 83 16 40 34 68 40 62 2 -2 -1 -31 -7 -65z m5381 44 c0 -3 -4 -8
-10 -11 -5 -3 -10 -1 -10 4 0 6 5 11 10 11 6 0 10 -2 10 -4z m-7864 -213 c-4
-25 -26 -28 -26 -4 0 12 6 21 14 21 8 0 13 -8 12 -17z m642 -11 l22 -19 -23
-20 c-12 -11 -46 -37 -76 -58 -48 -33 -56 -36 -77 -24 -13 7 -24 16 -24 21 0
25 -2 24 44 27 11 0 17 4 13 7 -11 11 51 64 99 84 1 0 11 -8 22 -18z m7742 8
c0 -5 -2 -10 -4 -10 -3 0 -8 5 -11 10 -3 6 -1 10 4 10 6 0 11 -4 11 -10z
m-2890 -30 c13 -8 13 -10 -2 -10 -9 0 -20 5 -23 10 -8 13 5 13 25 0z m2296
-82 c-19 -11 -50 -3 -42 11 3 4 17 6 32 3 23 -4 24 -6 10 -14z m-7366 -19 c0
-20 -4 -29 -12 -26 -12 4 -18 34 -11 50 10 18 23 4 23 -24z m7430 22 c0 -5 -9
-7 -20 -4 -11 3 -20 7 -20 9 0 2 9 4 20 4 11 0 20 -4 20 -9z m-30 -21 c0 -5
-7 -10 -15 -10 -8 0 -15 5 -15 10 0 6 7 10 15 10 8 0 15 -4 15 -10z m-122 -29
c11 -6 10 -11 -3 -25 -9 -9 -20 -16 -25 -16 -16 0 -22 21 -10 35 14 17 20 18
38 6z m-2646 -92 c-3 -41 -8 -62 -18 -66 -8 -3 -17 -3 -20 0 -7 7 30 127 39
127 1 0 0 -27 -1 -61z m2748 31 c0 -5 -7 -7 -15 -4 -8 4 -15 8 -15 10 0 2 7 4
15 4 8 0 15 -4 15 -10z m-4657 -97 c-7 -2 -21 -2 -30 0 -10 3 -4 5 12 5 17 0
24 -2 18 -5z m-2929 -74 c-3 -5 -10 -7 -15 -3 -5 3 -7 10 -3 15 3 5 10 7 15 3
5 -3 7 -10 3 -15z m5561 -34 l30 -9 -38 -4 c-32 -3 -37 -6 -32 -23 4 -11 2
-19 -4 -19 -11 0 -15 13 -12 37 1 6 -12 14 -29 18 -32 7 -52 25 -23 21 10 -2
27 0 38 4 12 5 24 3 30 -4 6 -7 24 -17 40 -21z m154 -1 c18 -4 30 -12 28 -18
-6 -17 -65 -25 -103 -13 l-35 11 28 12 c34 15 42 16 82 8z m-534 -64 c3 -5 -1
-10 -10 -10 -9 0 -13 5 -10 10 3 6 8 10 10 10 2 0 7 -4 10 -10z m415 -21 c0
-6 -4 -7 -10 -4 -5 3 -10 11 -10 16 0 6 5 7 10 4 6 -3 10 -11 10 -16z m50 -30
c0 -5 -11 -9 -25 -9 -33 0 -33 15 0 16 14 1 25 -2 25 -7z m-3684 -11 c4 -5 -7
-8 -24 -8 -18 0 -32 4 -32 8 0 10 46 10 56 0z m3784 2 c0 -5 -8 -10 -17 -10
-15 0 -16 2 -3 10 19 12 20 12 20 0z m-517 -85 c4 -8 2 -17 -3 -20 -6 -4 -10
3 -10 14 0 25 6 27 13 6z m1137 5 c0 -5 -4 -10 -10 -10 -5 0 -10 5 -10 10 0 6
5 10 10 10 6 0 10 -4 10 -10z m-2550 -31 c0 -5 -7 -9 -15 -9 -15 0 -20 12 -9
23 8 8 24 -1 24 -14z m1763 12 c4 -1 7 -8 7 -16 0 -22 -37 -18 -43 4 -3 13 0
18 12 16 9 -2 19 -4 24 -4z m-995 -37 c-10 -10 -28 6 -28 24 0 15 1 15 17 -1
9 -9 14 -19 11 -23z m922 26 c0 -5 -2 -10 -4 -10 -3 0 -8 5 -11 10 -3 6 -1 10
4 10 6 0 11 -4 11 -10z m1435 0 c3 -5 1 -10 -4 -10 -6 0 -11 5 -11 10 0 6 2
10 4 10 3 0 8 -4 11 -10z m-950 -40 c-11 -5 -29 -8 -40 -8 -16 0 -15 2 5 8 34
11 60 11 35 0z m165 -53 c0 -5 -4 -5 -10 -2 -5 3 -10 14 -10 23 0 15 2 15 10
2 5 -8 10 -19 10 -23z m-1813 -9 c-3 -8 -6 -5 -6 6 -1 11 2 17 5 13 3 -3 4
-12 1 -19z m3946 -55 c-5 -43 -6 -43 -45 -43 -33 0 -39 3 -34 18 2 9 7 32 11
49 15 76 76 53 68 -24z m-3113 47 c0 -5 -4 -10 -10 -10 -5 0 -10 5 -10 10 0 6
5 10 10 10 6 0 10 -4 10 -10z m95 0 c3 -5 1 -10 -4 -10 -6 0 -11 5 -11 10 0 6
2 10 4 10 3 0 8 -4 11 -10z m165 6 c0 -3 -4 -8 -10 -11 -5 -3 -10 -1 -10 4 0
6 5 11 10 11 6 0 10 -2 10 -4z m-195 -46 c-3 -4 -14 -10 -25 -13 -16 -4 -19 0
-18 18 2 20 5 21 25 12 12 -5 20 -13 18 -17z m680 20 c3 -5 2 -10 -4 -10 -5 0
-13 5 -16 10 -3 6 -2 10 4 10 5 0 13 -4 16 -10z m145 6 c0 -2 -7 -7 -16 -10
-8 -3 -12 -2 -9 4 6 10 25 14 25 6z m-887 -30 c3 -8 0 -16 -6 -19 -7 -3 -13 3
-13 14 0 22 12 25 19 5z m-33 -26 c0 -5 -5 -10 -11 -10 -5 0 -7 5 -4 10 3 6 8
10 11 10 2 0 4 -4 4 -10z m3100 -44 c0 -2 -7 -6 -15 -10 -8 -3 -15 -1 -15 4 0
6 7 10 15 10 8 0 15 -2 15 -4z m-2981 -64 c0 -15 -3 -21 -6 -14 -2 6 -11 12
-18 12 -7 0 -16 -6 -19 -12 -3 -7 -4 -2 -3 12 2 24 24 42 40 33 4 -2 7 -16 6
-31z m758 -2 c-1 -12 -8 -20 -19 -20 -16 0 -17 3 -8 20 6 11 15 20 20 20 5 0
8 -9 7 -20z m1814 -60 c-9 -22 -10 -20 -10 21 -1 25 2 49 7 53 11 12 14 -47 3
-74z m-2134 -225 c0 -8 -4 -15 -9 -15 -10 0 -11 14 -1 23 9 10 10 9 10 -8z
m2493 -166 c0 -5 -4 -9 -10 -9 -5 0 -10 7 -10 16 0 8 5 12 10 9 6 -3 10 -10
10 -16z m-353 -326 c-2 -16 -4 -5 -4 22 0 28 2 40 4 28 2 -13 2 -35 0 -50z
m-674 -23 c4 -17 2 -18 -13 -10 -28 15 -34 30 -12 30 11 0 22 -9 25 -20z m4
-67 c-3 -10 -5 -4 -5 12 0 17 2 24 5 18 2 -7 2 -21 0 -30z m-7 -154 c0 -5 -4
-9 -10 -9 -5 0 -10 7 -10 16 0 8 5 12 10 9 6 -3 10 -10 10 -16z m-130 -77 c0
-13 -49 -56 -56 -49 -10 10 24 57 41 57 8 0 15 -4 15 -8z m44 -247 c-4 -8 -11
-15 -16 -15 -6 0 -5 6 2 15 7 8 14 15 16 15 2 0 1 -7 -2 -15z m-122 -31 c-4
-22 -6 -24 -14 -10 -9 16 -3 36 11 36 5 0 6 -12 3 -26z m58 -12 l0 -27 -14 25
c-13 26 -11 44 5 35 5 -4 9 -18 9 -33z m-160 -56 c0 -3 -4 -8 -10 -11 -5 -3
-10 -1 -10 4 0 6 5 11 10 11 6 0 10 -2 10 -4z m-167 -86 c3 -11 3 -20 1 -20
-2 0 -8 9 -14 20 -6 11 -7 20 -2 20 6 0 12 -9 15 -20z m31 5 c3 -8 1 -15 -3
-15 -5 0 -11 7 -15 15 -3 8 -1 15 3 15 5 0 11 -7 15 -15z m-54 -15 c0 -5 -4
-10 -10 -10 -5 0 -10 5 -10 10 0 6 5 10 10 10 6 0 10 -4 10 -10z m412 -86 c11
-22 10 -28 -7 -40 -39 -29 -85 -11 -85 32 0 25 12 32 53 33 20 1 30 -6 39 -25z
m-812 -35 c0 -6 -4 -7 -10 -4 -5 3 -10 11 -10 16 0 6 5 7 10 4 6 -3 10 -11 10
-16z m-280 -84 c-12 -14 -5 -39 9 -31 14 9 8 -20 -8 -34 -13 -13 -14 -12 -8 3
3 9 2 19 -2 22 -5 3 -12 -2 -15 -11 -4 -9 -9 -15 -12 -12 -7 8 28 78 39 78 5
0 4 -7 -3 -15z m120 -44 c0 -6 -4 -13 -10 -16 -5 -3 -10 1 -10 9 0 9 5 16 10
16 6 0 10 -4 10 -9z m891 -1 c34 -19 18 -70 -22 -70 -29 0 -44 27 -31 55 13
27 23 30 53 15z m-1111 -26 c0 -3 -7 -12 -15 -20 -16 -17 -18 -14 -9 10 6 15
24 23 24 10z m160 -25 c0 -5 -4 -9 -10 -9 -5 0 -10 7 -10 16 0 8 5 12 10 9 6
-3 10 -10 10 -16z"/>
<path d="M5252 3938 l3 -143 135 1 c74 1 206 2 293 3 l157 1 0 134 c0 130 -1
134 -22 140 -13 3 -146 6 -296 6 l-273 0 3 -142z"/>
<path d="M4270 5785 c-14 -16 -10 -18 14 -9 9 3 16 10 16 15 0 14 -16 11 -30
-6z"/>
<path d="M1626 5731 c-39 -26 -53 -51 -35 -62 8 -6 275 -8 639 -7 580 3 628 4
653 21 15 9 27 26 27 36 0 28 -63 31 -689 31 -542 0 -567 -1 -595 -19z"/>
<path d="M1522 5728 c-27 -14 -25 -42 4 -46 21 -3 74 32 74 49 0 12 -50 10
-78 -3z"/>
<path d="M4275 5723 c-23 -6 -53 -30 -65 -54 -11 -20 -90 -306 -90 -325 0 -9
-4 -13 -8 -10 -4 2 -27 -32 -51 -77 -24 -45 -53 -93 -65 -105 l-21 -24 24 -19
c30 -25 37 -24 64 7 50 57 159 289 192 409 15 55 38 122 51 149 13 28 24 51
24 53 0 4 -30 2 -55 -4z"/>
<path d="M1430 5701 c0 -5 7 -12 16 -15 22 -9 24 -8 24 9 0 8 -9 15 -20 15
-11 0 -20 -4 -20 -9z"/>
<path d="M1347 5679 c-13 -8 -17 -18 -13 -34 6 -25 -8 -35 -51 -35 l-25 0 7
-197 c3 -109 9 -211 12 -228 8 -41 36 -96 63 -120 12 -11 26 -28 32 -38 8 -16
7 -17 -10 -8 -30 16 -92 89 -92 109 0 9 -5 24 -10 32 -13 20 -7 -178 7 -205 5
-11 9 -50 9 -88 l-1 -67 40 -1 c22 -1 44 -1 48 0 4 1 40 -9 80 -21 48 -15 64
-24 50 -26 -13 -2 -23 -8 -23 -13 0 -5 -16 -9 -36 -9 -19 0 -33 -4 -30 -9 10
-15 -6 -43 -20 -37 -10 4 -14 -2 -14 -19 0 -18 4 -23 15 -19 8 4 15 1 15 -6 0
-7 7 -10 16 -6 18 7 114 -22 114 -34 0 -5 -6 -11 -12 -13 -7 -3 -3 -6 9 -6 12
-1 26 5 30 13 4 8 19 16 33 18 16 2 27 12 31 28 l7 25 7 -23 c6 -19 13 -22 36
-18 16 4 43 9 59 12 17 3 28 9 25 14 -3 4 5 10 18 14 34 9 37 8 37 -14 0 -11
-4 -20 -9 -20 -5 0 -9 -10 -9 -22 0 -50 -103 -286 -165 -378 -65 -96 -210
-258 -295 -330 -49 -41 -97 -87 -106 -102 -34 -56 -9 -144 60 -210 34 -31 48
-37 102 -43 63 -7 64 -7 53 14 -6 11 -41 56 -76 98 -36 43 -65 81 -65 84 0 3
33 30 73 60 196 145 367 365 461 592 87 210 120 394 139 782 l2 30 -295 -4
c-244 -3 -298 -1 -307 11 -8 9 -12 81 -14 221 -1 211 3 237 37 237 8 0 14 5
14 10 0 13 -40 12 -63 -1z m438 -909 c-3 -5 -10 -10 -16 -10 -5 0 -9 5 -9 10
0 6 7 10 16 10 8 0 12 -4 9 -10z m-158 -87 c-3 -10 -5 -4 -5 12 0 17 2 24 5
18 2 -7 2 -21 0 -30z m-177 -9 c0 -16 -16 -19 -25 -4 -8 13 4 32 16 25 5 -4 9
-13 9 -21z m73 -24 c5 -4 -3 -5 -17 -3 -15 3 -29 10 -32 15 -7 11 36 1 49 -12z"/>
<path d="M9706 5391 c-4 -7 -5 -15 -2 -18 9 -9 19 4 14 18 -4 11 -6 11 -12 0z"/>
<path d="M1252 5305 c0 -16 2 -22 5 -12 2 9 2 23 0 30 -3 6 -5 -1 -5 -18z"/>
<path d="M5362 5153 l3 -28 100 -3 c146 -3 216 7 226 36 l8 22 -170 0 -170 0
3 -27z"/>
<path d="M9211 5154 c0 -11 3 -14 6 -6 3 7 2 16 -1 19 -3 4 -6 -2 -5 -13z"/>
<path d="M5441 5093 c-6 -7 -20 -13 -31 -13 -31 0 -31 -14 -3 -89 l26 -71 65
0 65 0 -6 35 c-6 36 5 55 44 75 48 26 6 50 -88 50 -27 0 -42 4 -38 10 4 6 11
7 17 4 6 -4 8 -2 4 4 -8 14 -39 11 -55 -5z"/>
<path d="M9698 5025 c-4 -17 -1 -25 8 -25 8 0 14 11 14 25 0 14 -4 25 -9 25
-5 0 -11 -11 -13 -25z"/>
<path d="M533 4974 c-3 -8 -1 -25 5 -37 10 -20 11 -18 11 16 1 39 -5 48 -16
21z"/>
<path d="M9702 4945 c8 -19 8 -31 -1 -51 -9 -20 -9 -25 1 -22 8 3 14 25 16 51
2 37 0 47 -12 47 -13 0 -14 -4 -4 -25z"/>
<path d="M9128 4728 c5 -5 16 -8 23 -6 8 3 3 7 -10 11 -17 4 -21 3 -13 -5z"/>
<path d="M9433 4575 c0 -22 2 -30 4 -17 2 12 2 30 0 40 -3 9 -5 -1 -4 -23z"/>
<path d="M1068 4573 c12 -2 30 -2 40 0 9 3 -1 5 -23 4 -22 0 -30 -2 -17 -4z"/>
<path d="M725 4539 c-12 -50 -12 -51 13 -60 26 -10 26 -8 8 50 l-13 45 -8 -35z"/>
<path d="M4112 4500 c0 -14 2 -19 5 -12 2 6 2 18 0 25 -3 6 -5 1 -5 -13z"/>
<path d="M901 4403 c-2 -35 11 -43 77 -43 36 0 62 3 59 7 -4 3 -31 5 -60 4
-47 -2 -55 1 -65 21 -6 13 -11 18 -11 11z"/>
<path d="M908 4293 c-3 -47 -4 -48 -59 -76 -30 -15 -71 -30 -91 -33 -33 -6
-36 -4 -46 26 -6 17 -16 29 -21 26 -5 -4 -11 -3 -13 1 -1 5 -38 7 -80 5 l-78
-4 0 -54 c0 -33 4 -54 11 -54 8 0 8 -4 0 -14 -8 -9 -11 -63 -9 -167 l3 -154
50 3 c28 2 57 8 65 13 10 6 -2 8 -35 5 -50 -5 -50 -5 -10 4 76 19 128 42 114
51 -11 7 -10 11 5 22 13 10 16 20 11 36 -6 19 -12 22 -33 17 -15 -4 -54 -9
-87 -11 -71 -6 -49 10 28 20 51 7 54 10 32 39 -15 19 -15 19 -15 1 0 -14 -3
-16 -12 -7 -8 8 -8 15 0 25 7 8 9 16 6 19 -3 4 19 15 48 26 29 11 67 27 83 36
40 21 45 20 45 -8 0 -34 10 -56 25 -56 7 0 26 -7 42 -17 24 -13 31 -26 40 -76
14 -71 19 -77 39 -49 10 15 25 22 49 22 33 0 34 -1 37 -42 3 -41 4 -43 38 -46
27 -2 31 0 19 8 -19 11 -53 72 -63 114 -5 22 -4 27 7 23 8 -3 36 -8 63 -11 56
-7 42 0 -73 33 -88 26 -99 40 -107 143 l-6 77 37 30 c29 24 33 31 19 31 -11 0
-17 3 -13 6 3 4 -1 13 -9 21 -8 8 -11 19 -8 25 4 6 2 8 -4 4 -6 -3 -13 -2 -17
4 -14 22 -24 8 -27 -37z m-35 -113 c-3 -11 -11 -20 -18 -20 -7 0 -15 -6 -18
-14 -3 -8 -20 -14 -39 -14 -29 -1 -73 -8 -73 -12 0 -1 -37 -3 -82 -6 -85 -5
-123 10 -56 22 107 18 191 37 232 53 53 20 61 19 54 -9z m-266 -102 c-3 -8 -6
-5 -6 6 -1 11 2 17 5 13 3 -3 4 -12 1 -19z m123 12 c0 -5 -4 -10 -10 -10 -5 0
-10 5 -10 10 0 6 5 10 10 10 6 0 10 -4 10 -10z m238 -117 c-5 -25 -28 -28 -28
-4 0 12 6 21 16 21 9 0 14 -7 12 -17z"/>
<path d="M1065 4309 c-4 -6 -5 -12 -2 -15 7 -7 37 7 37 17 0 13 -27 11 -35 -2z"/>
<path d="M9101 4204 c0 -11 3 -14 6 -6 3 7 2 16 -1 19 -3 4 -6 -2 -5 -13z"/>
<path d="M9690 3981 c0 -5 7 -11 15 -15 9 -3 15 0 15 9 0 8 -7 15 -15 15 -8 0
-15 -4 -15 -9z"/>
<path d="M870 3870 c0 -5 5 -10 11 -10 5 0 7 5 4 10 -3 6 -8 10 -11 10 -2 0
-4 -4 -4 -10z"/>
<path d="M9458 3583 c12 -2 32 -2 45 0 12 2 2 4 -23 4 -25 0 -35 -2 -22 -4z"/>
<path d="M1410 3481 c0 -14 41 -61 53 -61 7 0 18 9 25 20 10 17 8 21 -18 35
-32 17 -60 20 -60 6z"/>
<path d="M9380 3310 c0 -5 5 -10 10 -10 6 0 10 5 10 10 0 6 -4 10 -10 10 -5 0
-10 -4 -10 -10z"/>
<path d="M528 3263 c6 -2 18 -2 25 0 6 3 1 5 -13 5 -14 0 -19 -2 -12 -5z"/>
<path d="M520 2809 c0 -380 1 -408 18 -412 16 -4 16 -5 0 -6 -10 0 -18 -5 -18
-10 0 -5 28 -11 63 -13 34 -3 70 -8 80 -13 10 -4 17 -3 17 3 0 6 -19 13 -42
17 -65 10 -78 15 -78 31 0 17 22 17 119 0 74 -13 117 -11 127 5 3 5 14 9 25 9
11 0 29 5 41 11 20 11 20 11 -3 35 -19 21 -20 24 -5 30 9 3 24 3 34 -1 16 -6
16 -7 -1 -17 -18 -10 -18 -10 1 -23 16 -12 28 -12 78 1 32 9 75 16 94 17 28 2
36 7 44 30 13 36 -8 53 -40 32 -16 -10 -30 -12 -56 -4 -40 10 -84 44 -70 53 6
3 59 5 118 5 129 -2 282 10 289 22 3 4 -7 5 -22 2 -16 -2 -91 -5 -167 -6 -103
-1 -141 2 -144 11 -2 7 -8 10 -13 6 -5 -3 -9 4 -9 16 0 29 -28 81 -43 79 -19
-3 -107 23 -107 32 0 4 -12 9 -27 11 -27 3 -28 5 -25 57 2 51 1 53 -20 48
-120 -28 -187 -40 -202 -34 -29 11 -8 27 37 27 44 1 107 12 170 32 35 11 37
13 37 53 0 37 4 43 38 64 20 12 29 20 20 17 -9 -2 -32 -8 -51 -11 -32 -6 -35
-5 -41 27 -7 28 -9 30 -15 13 -8 -19 -8 -19 -16 3 -5 19 -12 23 -31 19 -43 -8
-25 8 24 22 67 18 193 62 157 55 -115 -25 -113 -25 -117 34 0 17 -4 10 -8 -18
l-7 -45 -1 42 c-1 23 -6 45 -12 48 -5 3 -10 0 -10 -7 0 -9 -3 -9 -8 -2 -4 7
-47 11 -114 10 l-108 0 0 -407z m340 -279 c0 -5 -4 -10 -10 -10 -5 0 -10 5
-10 10 0 6 5 10 10 10 6 0 10 -4 10 -10z m-133 -22 c-3 -8 -6 -5 -6 6 -1 11 2
17 5 13 3 -3 4 -12 1 -19z"/>
<path d="M9300 3202 c0 -12 4 -22 9 -22 10 0 9 26 -2 36 -4 4 -7 -2 -7 -14z"/>
<path d="M1214 3076 c-4 -11 -14 -14 -29 -10 -13 3 -26 1 -29 -5 -5 -7 8 -11
38 -11 33 0 46 4 46 14 0 22 -19 30 -26 12z"/>
<path d="M3811 3034 c0 -11 3 -14 6 -6 3 7 2 16 -1 19 -3 4 -6 -2 -5 -13z"/>
<path d="M3830 3031 c0 -5 7 -11 15 -15 8 -3 15 -1 15 3 0 5 -7 11 -15 15 -8
3 -15 1 -15 -3z"/>
<path d="M1634 2831 c9 -80 2 -103 -45 -133 -36 -24 -38 -27 -20 -33 12 -3 19
-9 17 -13 -2 -4 11 -7 30 -7 38 0 43 10 17 32 -17 14 -17 14 0 9 13 -4 17 1
17 23 0 21 12 39 44 69 44 40 46 62 5 62 -9 0 -22 7 -29 15 -10 13 -9 15 11
15 19 0 21 2 9 10 -8 5 -26 10 -39 10 -23 0 -23 -2 -17 -59z"/>
<path d="M7126 2788 c17 -33 29 -37 21 -8 -3 11 -2 18 3 15 4 -3 11 2 14 10 4
12 -1 15 -23 13 -29 -2 -29 -3 -15 -30z"/>
<path d="M7053 2783 c-1 -24 -1 -25 7 -8 11 26 12 35 2 35 -4 0 -8 -12 -9 -27z"/>
<path d="M5400 2720 l-35 -7 45 -2 c25 0 52 4 60 9 12 8 10 9 -10 9 -14 -1
-41 -5 -60 -9z"/>
<path d="M7172 2703 c-20 -4 -20 -6 -7 -19 23 -24 105 -8 89 17 -5 9 -40 10
-82 2z"/>
<path d="M8599 2653 c6 -13 19 -23 28 -23 9 0 14 1 12 3 -2 1 -15 11 -28 22
l-24 20 12 -22z"/>
<path d="M9227 2657 c-4 -10 -7 -28 -6 -40 0 -21 1 -21 10 2 5 14 8 32 7 40
-3 13 -5 13 -11 -2z"/>
<path d="M6390 2656 c0 -2 7 -6 15 -10 8 -3 15 -1 15 4 0 6 -7 10 -15 10 -8 0
-15 -2 -15 -4z"/>
<path d="M9143 2630 c-23 -21 -31 -50 -14 -50 5 0 12 6 14 13 3 6 6 1 7 -13 0
-22 2 -23 11 -7 6 9 9 31 7 48 l-3 30 -22 -21z"/>
<path d="M9186 2634 c-10 -25 -7 -74 4 -74 6 0 10 20 10 45 0 47 -4 55 -14 29z"/>
<path d="M7636 2615 c-9 -13 -16 -30 -16 -37 0 -20 28 -56 53 -69 19 -10 18
-8 -5 18 -34 36 -36 76 -6 97 17 12 19 16 6 16 -8 0 -23 -11 -32 -25z"/>
<path d="M9092 2620 c0 -14 2 -19 5 -12 2 6 2 18 0 25 -3 6 -5 1 -5 -13z"/>
<path d="M5708 2616 c-22 -16 -22 -23 -4 -42 8 -8 12 -23 9 -35 -4 -15 -2 -20
5 -15 9 5 16 108 8 106 0 0 -9 -7 -18 -14z"/>
<path d="M7025 2620 c-3 -4 9 -10 25 -12 17 -3 30 -1 30 3 0 10 -50 18 -55 9z"/>
<path d="M1240 2541 c0 -5 -12 -23 -26 -40 l-26 -31 26 0 c16 0 26 6 26 14 0
8 4 16 9 18 4 2 12 13 15 26 6 16 3 22 -8 22 -9 0 -16 -4 -16 -9z"/>
<path d="M1514 2457 c-20 -10 -19 -12 25 -33 26 -11 75 -24 110 -27 34 -2 64
-7 67 -9 9 -10 -8 -37 -27 -43 -29 -9 -23 -25 9 -25 45 0 54 17 31 61 -13 27
-26 39 -41 39 -12 0 -41 11 -65 25 -33 20 -43 22 -43 11 0 -8 -5 -18 -10 -21
-6 -4 -10 -3 -9 2 6 34 -8 39 -47 20z"/>
<path d="M1680 2461 c0 -6 5 -13 10 -16 6 -3 10 1 10 9 0 9 -4 16 -10 16 -5 0
-10 -4 -10 -9z"/>
<path d="M6735 2460 c-10 -16 9 -33 30 -28 16 3 15 5 -3 21 -14 13 -22 15 -27
7z"/>
<path d="M8318 2453 c7 -3 16 -2 19 1 4 3 -2 6 -13 5 -11 0 -14 -3 -6 -6z"/>
<path d="M2709 2443 c0 -5 -2 -15 -3 -23 -5 -24 12 -60 29 -60 8 0 15 -5 15
-12 0 -6 3 -8 6 -5 4 3 15 2 24 -3 14 -8 19 -5 23 12 9 31 1 38 -44 38 -27 0
-39 4 -39 14 0 8 5 18 10 21 6 3 10 10 10 16 0 11 -30 13 -31 2z"/>
<path d="M2755 2441 c-3 -6 4 -8 16 -6 30 6 37 15 11 15 -11 0 -23 -4 -27 -9z"/>
<path d="M1900 2430 c0 -5 5 -10 11 -10 5 0 7 5 4 10 -3 6 -8 10 -11 10 -2 0
-4 -4 -4 -10z"/>
<path d="M6560 2420 c-21 -7 -21 -8 -5 -9 11 0 27 4 35 9 18 11 5 11 -30 0z"/>
<path d="M7238 2413 c7 -3 16 -2 19 1 4 3 -2 6 -13 5 -11 0 -14 -3 -6 -6z"/>
<path d="M2038 2403 c7 -3 16 -2 19 1 4 3 -2 6 -13 5 -11 0 -14 -3 -6 -6z"/>
<path d="M5712 2383 c-25 -25 -23 -38 7 -46 30 -8 45 16 29 46 l-13 24 -23
-24z"/>
<path d="M6735 2380 c-3 -6 1 -7 9 -4 18 7 21 14 7 14 -6 0 -13 -4 -16 -10z"/>
<path d="M8290 2370 c0 -19 3 -21 12 -12 9 9 9 15 0 24 -9 9 -12 7 -12 -12z"/>
<path d="M8322 2365 c0 -16 2 -22 5 -12 2 9 2 23 0 30 -3 6 -5 -1 -5 -18z"/>
<path d="M5753 2296 c2 -28 5 -32 16 -23 7 6 9 13 3 15 -5 1 -8 12 -5 22 3 11
0 20 -6 20 -6 0 -10 -14 -8 -34z"/>
<path d="M1677 2296 c-7 -18 15 -67 28 -63 18 6 16 43 -3 60 -17 15 -20 16
-25 3z"/>
<path d="M2809 2282 c13 -24 3 -65 -15 -58 -8 3 -11 0 -7 -10 4 -11 9 -12 16
-5 18 18 25 13 19 -14 -3 -20 -1 -24 11 -19 9 3 13 12 10 21 -4 10 -2 14 5 9
17 -10 23 10 7 24 -8 7 -15 21 -15 31 0 10 -9 23 -21 29 -18 10 -19 10 -10 -8z"/>
<path d="M521 2195 c-2 -205 30 -367 110 -570 127 -321 355 -597 652 -792 159
-104 330 -176 547 -230 l115 -28 780 -1 c429 0 740 2 690 5 -49 3 -100 12
-112 19 -12 6 -32 12 -45 12 -16 0 -19 3 -10 9 15 9 62 2 62 -10 0 -4 9 -7 19
-6 11 0 17 5 14 10 -6 11 17 58 26 52 4 -2 8 5 8 16 1 11 -2 17 -8 14 -5 -4
-9 5 -9 18 0 28 -26 43 -46 26 -8 -6 -21 -9 -29 -5 -8 3 -15 1 -15 -4 0 -9 14
-14 32 -11 4 0 5 -5 2 -13 -4 -9 2 -13 20 -11 14 2 26 -1 26 -6 0 -5 -5 -9
-11 -9 -6 0 -8 -9 -4 -20 8 -26 -10 -26 -28 0 -8 11 -17 17 -20 13 -4 -3 -7
-1 -7 6 0 7 -5 9 -12 5 -8 -5 -9 -1 -5 12 6 15 3 14 -13 -5 -11 -13 -20 -29
-20 -37 0 -8 -4 -14 -10 -14 -13 0 -13 6 0 31 7 11 7 19 1 19 -5 0 -11 -4 -13
-9 -4 -14 -108 -20 -108 -7 0 6 -4 5 -8 -2 -5 -7 -16 -10 -25 -6 -10 3 -17 1
-17 -5 0 -6 5 -11 10 -11 6 0 10 -5 10 -11 0 -18 -30 11 -31 30 0 9 -3 11 -5
4 -3 -7 -12 -9 -20 -6 -8 3 -14 0 -14 -6 0 -6 -7 -11 -15 -11 -8 0 -15 -5 -15
-12 0 -6 -3 -8 -6 -5 -4 4 -1 13 6 22 10 12 10 18 0 30 -6 8 -8 20 -4 26 5 9
2 10 -11 6 -9 -4 -24 -2 -31 4 -11 9 -14 8 -14 -2 0 -7 -15 1 -33 19 -18 18
-41 32 -51 32 -10 0 -14 5 -11 11 4 6 -3 5 -16 -3 -33 -19 -49 -35 -49 -49 0
-10 3 -10 12 -1 15 15 32 16 23 2 -3 -5 -1 -10 4 -10 6 0 10 -3 9 -7 -1 -5 4
-20 10 -35 10 -24 8 -31 -14 -55 -21 -23 -29 -25 -51 -17 -15 5 -35 23 -45 41
-24 41 -39 93 -27 93 5 0 9 -8 9 -17 1 -34 44 39 45 74 0 34 -9 43 -19 20 -4
-6 -4 -2 -2 10 2 13 -1 21 -8 20 -6 -1 -10 4 -8 10 1 7 -3 13 -9 13 -7 0 -9
-9 -6 -21 3 -12 0 -22 -9 -26 -8 -3 -14 -9 -14 -15 0 -5 5 -6 10 -3 6 4 10 -5
8 -24 -1 -16 -6 -27 -10 -25 -5 3 -6 9 -3 14 3 4 -2 10 -9 13 -8 3 -17 1 -19
-6 -2 -7 -13 3 -23 20 -19 33 -29 38 -71 34 -17 -1 -20 3 -16 19 9 32 -23 24
-37 -10 -7 -16 -16 -30 -20 -30 -5 0 -11 -8 -13 -17 -4 -17 -5 -17 -6 -1 -1
18 -15 19 -53 5 -39 -15 -47 -15 -57 -4 -5 7 -22 14 -37 15 -59 5 -87 45 -79
112 5 34 -32 62 -86 66 -23 2 -57 8 -76 15 -24 8 -38 8 -47 0 -9 -7 -16 -7
-26 2 -10 10 -12 8 -7 -10 4 -17 1 -23 -12 -23 -10 0 -18 7 -18 15 0 8 4 12 9
9 4 -3 8 -1 8 4 0 6 -7 12 -15 16 -13 5 -19 -4 -17 -25 1 -3 -16 -5 -37 -5
-30 1 -37 -2 -33 -13 3 -9 1 -12 -6 -7 -7 4 -12 18 -12 31 0 36 -10 55 -31 55
-18 0 -24 15 -20 48 1 6 -2 12 -6 12 -4 0 -9 20 -10 45 -1 46 9 59 22 28 6
-17 7 -16 17 2 6 11 17 23 24 28 7 4 10 15 7 24 -5 13 -2 15 15 11 15 -4 22
-2 22 7 0 19 18 28 52 27 16 0 28 4 27 11 -4 34 0 41 19 26 20 -16 59 -39 67
-39 4 0 3 5 -1 12 -5 7 -3 8 5 4 7 -5 10 -15 6 -24 -3 -9 -3 -13 1 -9 4 4 14
1 23 -7 9 -8 40 -26 69 -41 30 -16 56 -34 59 -41 2 -7 11 -10 20 -7 8 3 18 0
23 -6 4 -7 29 -15 56 -18 27 -3 54 -8 59 -13 12 -9 106 -22 153 -20 19 0 52 7
73 14 22 8 42 10 45 5 3 -5 17 -7 32 -5 43 5 152 40 152 48 0 4 8 8 19 8 10 0
41 18 70 41 48 38 51 44 51 85 0 24 -2 44 -4 44 -2 0 -23 -18 -46 -39 -26 -24
-75 -52 -124 -72 -74 -29 -93 -33 -216 -37 -101 -3 -156 0 -220 13 -104 20
-93 17 -155 41 -11 4 -26 8 -34 10 -7 1 -34 20 -60 42 l-46 39 -3 93 c-2 81
-1 92 13 86 11 -4 14 -2 8 7 -4 6 -10 44 -13 82 l-5 70 -22 -22 c-17 -17 -23
-35 -23 -67 0 -50 17 -72 22 -29 3 27 3 27 10 5 7 -24 -13 -43 -60 -57 -22 -6
-24 -5 -21 34 2 22 0 43 -4 47 -4 4 -7 -16 -7 -44 0 -48 -2 -52 -24 -52 -23 0
-25 5 -28 48 -2 34 -7 47 -18 47 -22 1 -30 -15 -30 -62 0 -39 -13 -58 -22 -33
-2 6 -13 12 -26 13 -12 0 -22 4 -22 7 0 3 -8 6 -19 7 -11 1 -23 -9 -30 -23 -9
-20 -15 -23 -38 -18 -16 4 -31 12 -35 18 -5 8 -8 7 -8 -2 0 -8 -11 -11 -30
-10 -16 1 -30 6 -30 11 0 4 -4 5 -10 2 -5 -3 -35 2 -67 11 -141 41 -203 86
-203 148 0 17 -7 40 -15 50 -11 15 -12 23 -3 33 7 9 8 17 2 21 -5 4 -9 18 -9
32 0 21 -5 26 -32 28 -18 2 -41 -2 -53 -8 -18 -10 -19 -13 -6 -25 8 -8 23 -15
33 -15 17 -1 17 -2 -1 -15 -20 -15 -20 -15 0 -16 12 0 4 -8 -23 -22 -24 -11
-43 -27 -43 -35 0 -8 -6 -12 -15 -8 -8 3 -18 -2 -23 -10 -8 -14 -10 -14 -21 0
-9 10 -22 14 -37 10 -19 -5 -24 -2 -24 13 0 15 -16 25 -71 43 -39 13 -73 30
-76 37 -3 8 -15 11 -29 9 -17 -3 -24 0 -24 11 0 11 6 14 23 9 12 -3 58 -9 102
-13 69 -5 78 -4 68 8 -10 13 -5 17 32 28 37 11 45 18 45 37 0 12 4 25 8 28 5
3 6 -8 4 -25 -4 -29 -4 -29 46 -29 73 0 106 14 98 44 -3 12 0 30 7 39 15 20
97 35 97 18 0 -9 6 -9 23 0 12 7 24 15 27 19 3 4 39 22 80 40 41 18 81 37 88
42 9 8 12 4 12 -17 l0 -27 78 7 c88 8 106 17 66 36 -33 16 -46 75 -20 85 9 3
16 12 16 19 0 16 35 29 50 20 6 -4 17 -2 25 5 17 14 55 -7 55 -31 0 -11 8 -16
28 -15 26 1 27 -1 28 -53 l2 -54 -35 38 -34 38 -17 -24 c-9 -13 -23 -29 -32
-36 -8 -6 -13 -13 -10 -15 3 -2 45 -12 95 -22 49 -9 94 -21 100 -26 5 -4 45
-18 88 -31 47 -13 87 -32 102 -47 l25 -25 57 21 c32 11 78 23 103 26 24 4 51
13 60 20 19 16 88 28 95 16 3 -5 -5 -11 -17 -13 -13 -2 8 -5 45 -6 43 -1 66 3
62 9 -3 5 -12 10 -19 10 -23 0 -37 22 -24 39 7 9 8 13 4 9 -12 -10 -36 11 -36
31 0 14 2 14 10 1 6 -9 10 -10 10 -3 0 21 -12 43 -21 37 -14 -8 -11 -64 4 -65
6 0 3 -4 -8 -9 -28 -12 -35 -12 -35 1 0 5 4 8 8 5 5 -3 9 11 10 31 2 41 -15
58 -37 40 -8 -7 -24 -12 -35 -12 -14 0 -22 -7 -24 -22 -2 -14 -8 -20 -18 -16
-8 3 -14 1 -14 -4 0 -5 11 -9 24 -9 14 0 23 3 21 6 -2 3 0 12 6 20 6 11 9 7
10 -15 1 -17 3 -22 6 -12 5 18 23 24 23 8 0 -5 2 -16 5 -24 3 -7 0 -14 -7 -15
-7 -1 -35 -3 -63 -6 -150 -15 -205 -18 -229 -12 -23 6 -24 9 -14 26 9 14 14
16 20 7 6 -9 8 -9 8 1 0 6 7 12 15 12 15 0 32 46 21 57 -4 4 -36 10 -72 14
-95 10 -102 26 -12 27 154 1 340 35 433 78 52 24 95 58 95 74 0 18 -19 11 -30
-11 -7 -11 -36 -31 -65 -44 -189 -84 -543 -96 -690 -24 -33 16 -71 36 -84 43
-26 15 -41 8 -54 -26 -7 -20 -32 -24 -42 -8 -11 17 -23 11 -34 -17 -15 -40
-31 -58 -75 -82 l-37 -21 -19 22 -19 23 -1 -33 c0 -30 -2 -32 -20 -22 -17 9
-20 8 -20 -12 l0 -23 -20 25 -20 25 -1 -35 c-1 -28 -3 -30 -6 -10 -7 34 -24
55 -34 39 -4 -8 -9 -4 -14 10 -12 39 -35 5 -36 -53 -1 -47 -2 -49 -9 -18 -10
42 -30 65 -31 36 0 -14 -3 -12 -11 9 -10 27 -31 36 -43 17 -3 -6 -18 -7 -32
-4 -17 5 -30 2 -37 -7 -8 -11 -40 -14 -133 -14 -68 0 -123 3 -123 8 0 4 -16 7
-36 7 -50 0 -211 39 -256 61 -21 11 -49 20 -63 21 -24 2 -25 6 -25 60 0 37 -5
60 -14 65 -7 4 -16 15 -19 23 -3 8 -6 -30 -6 -85z m1483 -158 c3 4 6 -6 6 -20
0 -35 23 -35 37 1 10 24 11 25 12 5 1 -12 9 -29 18 -39 17 -16 16 -17 -24 -11
-57 9 -117 38 -101 48 7 5 16 3 20 -4 6 -9 8 -9 8 0 0 6 -4 15 -10 18 -5 3
-10 14 -10 23 1 14 4 13 19 -5 10 -12 21 -19 25 -16z m136 -36 c9 -33 1 -45
-24 -35 -10 4 -16 18 -16 37 0 29 1 30 15 11 13 -18 14 -18 8 6 -8 35 6 19 17
-19z m-1063 -23 c-3 -8 -6 -5 -6 6 -1 11 2 17 5 13 3 -3 4 -12 1 -19z m-60
-25 c-3 -10 -5 -4 -5 12 0 17 2 24 5 18 2 -7 2 -21 0 -30z m-311 -60 c-10 -10
-19 5 -10 18 6 11 8 11 12 0 2 -7 1 -15 -2 -18z m213 -17 c5 -12 10 -15 10 -8
1 6 5 12 9 12 4 0 6 -16 4 -35 -2 -19 -6 -35 -7 -35 -16 0 -35 15 -35 27 0 13
-2 13 -15 0 -24 -25 -65 0 -65 39 0 17 2 33 5 36 12 11 84 -17 94 -36z m126 6
c-3 -3 -11 0 -18 7 -9 10 -8 11 6 5 10 -3 15 -9 12 -12z m125 7 c0 -5 -4 -7
-10 -4 -5 3 -10 1 -10 -4 0 -6 -5 -11 -11 -11 -8 0 -8 5 1 15 14 17 30 20 30
4z m40 2 c0 -6 -4 -13 -10 -16 -5 -3 -10 1 -10 9 0 9 5 16 10 16 6 0 10 -4 10
-9z m-590 -42 c0 -6 -4 -7 -10 -4 -5 3 -10 11 -10 16 0 6 5 7 10 4 6 -3 10
-11 10 -16z m90 -139 c0 -5 -5 -10 -11 -10 -5 0 -7 5 -4 10 3 6 8 10 11 10 2
0 4 -4 4 -10z m138 -46 c4 -26 -34 -39 -54 -19 -19 18 -18 33 4 38 31 9 47 2
50 -19z m53 16 c26 -14 24 -32 -3 -28 -13 2 -24 11 -26 21 -4 20 2 21 29 7z
m297 -88 c9 -5 27 -14 39 -20 13 -7 31 -12 41 -12 10 0 29 -11 42 -25 13 -14
42 -36 64 -50 23 -13 54 -37 69 -54 16 -17 35 -31 42 -31 19 0 65 -44 65 -61
0 -12 -2 -12 -9 0 -6 10 -11 4 -16 -20 -10 -45 -21 -58 -48 -53 -12 2 -16 2
-9 -2 21 -10 3 -24 -32 -24 -17 0 -37 -5 -44 -12 -6 -6 -25 -11 -42 -10 -32 1
-41 -12 -15 -22 22 -8 18 -25 -5 -23 -11 1 -20 8 -20 17 0 13 -2 13 -9 1 -5
-8 -7 -21 -4 -28 5 -12 -7 -14 -65 -11 -59 4 -86 12 -164 50 -65 32 -102 58
-124 84 -63 80 -80 131 -58 183 32 75 76 102 199 121 72 11 83 11 103 2z m622
-267 c13 -16 6 -35 -15 -35 -8 0 -17 -5 -21 -12 -4 -7 -3 -8 5 -4 7 4 -12 -22
-41 -58 -29 -37 -58 -64 -64 -62 -6 2 -11 -3 -10 -12 1 -10 -6 -16 -16 -16
-10 1 -16 -1 -14 -5 3 -4 1 -13 -5 -21 -5 -8 -9 -10 -9 -5 0 6 -9 11 -20 12
-11 1 -20 -3 -20 -8 0 -6 5 -7 10 -4 13 8 13 -12 0 -28 -6 -7 -18 -23 -28 -36
-16 -21 -20 -22 -25 -8 -3 9 -2 16 2 14 5 -1 8 1 8 4 -1 3 6 13 15 23 9 9 15
23 12 31 -3 8 3 27 15 43 11 16 18 32 14 35 -8 9 17 38 28 31 15 -9 79 50 87
81 6 20 15 31 30 33 12 2 22 8 22 13 0 14 26 11 40 -6z m-30 -325 c0 -5 -5
-10 -11 -10 -5 0 -7 5 -4 10 3 6 8 10 11 10 2 0 4 -4 4 -10z m-260 -24 c0 -26
-19 -39 -41 -26 -11 7 -9 13 10 29 30 26 31 26 31 -3z m260 -62 c0 -8 -4 -12
-10 -9 -5 3 -10 13 -10 21 0 8 5 12 10 9 6 -3 10 -13 10 -21z m197 -213 c7 -9
13 -22 13 -30 0 -22 -31 -51 -55 -51 -24 0 -80 39 -57 40 7 0 11 4 8 9 -3 5 4
21 15 35 23 29 53 28 76 -3z m934 -18 c-8 -15 -10 -15 -11 -2 0 17 10 32 18
25 2 -3 -1 -13 -7 -23z m41 -7 c5 3 4 -3 -4 -15 -7 -12 -18 -19 -25 -17 -7 3
-10 -1 -6 -10 3 -7 13 -14 22 -14 12 0 10 -5 -9 -20 -30 -24 -37 -25 -37 -5 0
8 5 12 10 8 5 -3 6 3 2 16 -6 20 26 80 33 60 2 -5 8 -6 14 -3z m211 -55 c-9
-11 -21 -17 -26 -14 -6 3 -2 12 8 20 27 19 37 16 18 -6z m42 -33 c-9 -6 -19
-7 -22 -4 -4 3 -1 6 6 6 7 0 9 4 6 10 -4 6 1 7 11 3 15 -6 15 -7 -1 -15z"/>
<path d="M1950 2287 c3 -2 34 -7 70 -11 37 -4 59 -3 52 2 -13 9 -131 17 -122
9z"/>
<path d="M6716 2274 c-3 -9 -6 -24 -6 -34 0 -10 -19 -35 -42 -54 -23 -20 -40
-38 -37 -40 17 -15 49 -25 49 -16 0 6 5 8 10 5 6 -3 10 -2 10 4 0 5 -4 13 -10
16 -5 3 -10 10 -10 14 0 7 11 7 52 2 3 -1 9 -9 11 -18 2 -10 2 6 -1 34 -3 34
0 58 7 67 7 8 10 20 6 26 -9 15 -32 12 -39 -6z"/>
<path d="M2098 2273 c7 -3 16 -2 19 1 4 3 -2 6 -13 5 -11 0 -14 -3 -6 -6z"/>
<path d="M2177 2273 c18 -2 50 -2 70 0 21 2 7 4 -32 4 -38 0 -55 -2 -38 -4z"/>
<path d="M2172 2222 c-1 -7 -6 -10 -12 -7 -6 4 -10 -10 -10 -35 0 -38 1 -40
16 -26 10 10 14 28 11 48 -2 18 -5 27 -5 20z m-5 -44 c-3 -8 -6 -5 -6 6 -1 11
2 17 5 13 3 -3 4 -12 1 -19z"/>
<path d="M8041 2197 c-12 -20 -34 -45 -48 -55 -21 -16 -25 -26 -25 -65 1 -25
-3 -49 -9 -53 -6 -3 -10 0 -9 7 3 22 -11 59 -22 59 -10 0 -6 -28 8 -64 3 -9 1
-16 -5 -16 -6 0 -11 6 -11 14 0 8 -4 18 -10 21 -6 4 -8 -7 -5 -27 l5 -33 -14
30 -15 30 -2 -30 -1 -30 -8 33 c-12 50 -20 50 -20 0 0 -55 -10 -67 -26 -31
l-12 28 -1 -28 c-1 -16 -5 -26 -9 -23 -5 3 -15 -5 -22 -18 -7 -13 -22 -27 -34
-30 -11 -3 -48 -12 -81 -21 l-60 -15 71 4 72 3 5 -40 c3 -22 3 -45 0 -53 -8
-22 -112 -47 -228 -54 -111 -7 -89 -13 40 -12 90 1 261 42 363 87 82 36 144
42 174 18 8 -7 19 -8 27 -4 21 13 3 72 -30 101 -26 22 -27 27 -15 43 14 18 15
18 43 1 28 -18 28 -18 11 2 -20 23 -23 50 -8 59 6 3 10 -2 10 -11 0 -12 3 -15
10 -8 7 7 7 28 0 64 -8 40 -7 57 2 69 12 14 11 14 -4 2 -10 -7 -18 -19 -18
-25 0 -17 -99 -111 -137 -130 -18 -9 -33 -14 -33 -11 0 4 25 29 55 57 67 61
87 111 64 160 l-15 31 -23 -36z m-5 -108 c3 -6 2 -15 -4 -21 -7 -7 -14 -3 -21
11 -10 17 -9 21 3 21 8 0 18 -5 22 -11z m-48 -30 c-3 -8 -7 -3 -11 10 -4 17
-3 21 5 13 5 -5 8 -16 6 -23z m-181 -181 c-3 -7 -5 -2 -5 12 0 14 2 19 5 13 2
-7 2 -19 0 -25z m-20 7 c9 -24 -1 -27 -15 -5 -8 13 -8 20 -2 20 6 0 13 -7 17
-15z m10 -61 c14 -13 14 -17 2 -25 -10 -6 -16 -3 -21 9 -14 36 -7 42 19 16z"/>
<path d="M2192 2188 c-1 -23 2 -28 8 -18 12 19 13 50 2 50 -5 0 -9 -14 -10
-32z"/>
<path d="M5780 2210 c0 -5 5 -10 10 -10 6 0 10 5 10 10 0 6 -4 10 -10 10 -5 0
-10 -4 -10 -10z"/>
<path d="M2880 2190 c0 -5 5 -10 10 -10 6 0 10 5 10 10 0 6 -4 10 -10 10 -5 0
-10 -4 -10 -10z"/>
<path d="M2773 2178 c-4 -7 -8 -17 -10 -23 -1 -5 -5 -20 -9 -32 -3 -13 -2 -23
2 -24 5 0 18 -2 29 -4 10 -2 25 1 32 7 10 8 13 6 13 -6 0 -9 7 -16 15 -16 21
0 19 13 -6 29 -18 11 -23 11 -30 0 -6 -11 -11 -11 -20 -2 -9 9 -8 17 4 33 15
22 13 50 -3 50 -5 0 -12 -6 -17 -12z"/>
<path d="M2237 2163 c-10 -9 -9 -23 1 -23 5 0 9 7 9 15 0 17 -1 18 -10 8z"/>
<path d="M2291 2154 c0 -11 3 -14 6 -6 3 7 2 16 -1 19 -3 4 -6 -2 -5 -13z"/>
<path d="M9371 2149 c-1 -17 7 -32 22 -42 23 -15 23 -14 19 16 -4 27 -6 29
-12 12 -8 -21 -8 -20 -23 25 -3 8 -6 3 -6 -11z"/>
<path d="M2260 2150 c0 -5 5 -10 11 -10 5 0 7 5 4 10 -3 6 -8 10 -11 10 -2 0
-4 -4 -4 -10z"/>
<path d="M6717 2137 c-3 -8 3 -14 16 -15 12 0 17 2 12 6 -6 4 -13 11 -16 15
-4 4 -9 2 -12 -6z"/>
<path d="M9431 2124 c0 -20 6 -37 17 -45 15 -12 15 -12 5 1 -6 8 -13 29 -16
45 l-4 30 -2 -31z"/>
<path d="M6575 2130 c-3 -5 -2 -10 4 -10 5 0 13 5 16 10 3 6 2 10 -4 10 -5 0
-13 -4 -16 -10z"/>
<path d="M9472 2120 c0 -14 2 -19 5 -12 2 6 2 18 0 25 -3 6 -5 1 -5 -13z"/>
<path d="M9513 2100 c0 -25 2 -35 4 -22 2 12 2 32 0 45 -2 12 -4 2 -4 -23z"/>
<path d="M6542 2122 c-7 -5 -10 -16 -6 -25 9 -25 22 -20 22 8 0 14 -1 25 -2
25 0 0 -7 -4 -14 -8z"/>
<path d="M6734 2081 c4 -5 0 -12 -6 -14 -10 -4 -10 -6 0 -6 7 -1 10 -5 7 -11
-3 -5 1 -10 9 -10 9 0 16 4 16 9 0 18 -12 41 -22 41 -5 0 -7 -4 -4 -9z"/>
<path d="M2330 2055 c0 -8 4 -15 10 -15 5 0 7 7 4 15 -4 8 -8 15 -10 15 -2 0
-4 -7 -4 -15z"/>
<path d="M2366 2054 c-8 -22 -8 -54 2 -54 4 0 8 16 9 35 2 38 -1 44 -11 19z"/>
<path d="M6506 2057 c3 -10 9 -15 12 -12 3 3 0 11 -7 18 -10 9 -11 8 -5 -6z"/>
<path d="M2390 2039 c0 -5 5 -7 10 -4 6 3 10 8 10 11 0 2 -4 4 -10 4 -5 0 -10
-5 -10 -11z"/>
<path d="M2655 2039 c-11 -16 -1 -19 13 -3 7 8 8 14 3 14 -5 0 -13 -5 -16 -11z"/>
<path d="M7075 2040 c-3 -6 1 -7 9 -4 18 7 21 14 7 14 -6 0 -13 -4 -16 -10z"/>
<path d="M7015 2020 c14 -15 21 -17 32 -9 22 19 15 29 -19 29 -30 0 -31 0 -13
-20z"/>
<path d="M2610 2002 c0 -5 7 -9 15 -9 8 0 12 4 9 9 -3 4 -9 8 -15 8 -5 0 -9
-4 -9 -8z"/>
<path d="M6775 2000 c3 -5 10 -10 16 -10 5 0 9 5 9 10 0 6 -7 10 -16 10 -8 0
-12 -4 -9 -10z"/>
<path d="M6850 1975 c0 -5 77 -55 85 -55 18 0 -2 19 -40 38 -25 12 -45 20 -45
17z"/>
<path d="M6981 1921 c-24 -34 -27 -49 -7 -32 11 9 19 9 35 -1 11 -7 23 -9 26
-6 6 6 -21 68 -30 68 -2 0 -13 -13 -24 -29z"/>
<path d="M8150 1868 c1 -34 19 -68 38 -68 6 0 6 16 -2 47 -14 57 -36 70 -36
21z"/>
<path d="M7514 1879 c-3 -5 12 -9 32 -9 41 0 41 10 0 14 -15 2 -29 -1 -32 -5z"/>
<path d="M8196 1872 c6 -4 15 -22 19 -40 9 -45 18 -34 10 12 -5 24 -13 36 -24
36 -10 0 -12 -3 -5 -8z"/>
<path d="M2920 1846 c0 -2 7 -6 15 -10 8 -3 15 -1 15 4 0 6 -7 10 -15 10 -8 0
-15 -2 -15 -4z"/>
<path d="M6971 1794 c0 -11 3 -14 6 -6 3 7 2 16 -1 19 -3 4 -6 -2 -5 -13z"/>
<path d="M9203 1700 c0 -36 2 -50 4 -32 2 17 2 47 0 65 -2 17 -4 3 -4 -33z"/>
<path d="M8353 1625 c0 -22 2 -30 4 -17 2 12 2 30 0 40 -3 9 -5 -1 -4 -23z"/>
<path d="M1983 1570 c0 -25 2 -35 4 -22 2 12 2 32 0 45 -2 12 -4 2 -4 -23z"/>
<path d="M6865 1600 c-3 -5 -2 -10 4 -10 5 0 13 5 16 10 3 6 2 10 -4 10 -5 0
-13 -4 -16 -10z"/>
<path d="M2080 1506 c0 -2 8 -10 18 -17 15 -13 16 -12 3 4 -13 16 -21 21 -21
13z"/>
<path d="M2941 1457 c-6 -8 -9 -16 -6 -18 2 -3 5 -21 7 -42 1 -20 6 -37 11
-37 5 0 7 9 4 20 -3 11 -1 23 4 26 6 3 7 15 3 26 -4 13 -1 24 7 29 11 7 11 9
-2 9 -9 0 -22 -6 -28 -13z"/>
<path d="M2300 1405 c19 -7 55 -13 80 -13 41 0 39 1 -25 13 -88 17 -99 17 -55
0z"/>
<path d="M2768 1403 c6 -2 18 -2 25 0 6 3 1 5 -13 5 -14 0 -19 -2 -12 -5z"/>
<path d="M2683 1393 c9 -2 23 -2 30 0 6 3 -1 5 -18 5 -16 0 -22 -2 -12 -5z"/>
<path d="M2468 1383 c23 -2 59 -2 80 0 20 2 1 4 -43 4 -44 0 -61 -2 -37 -4z"/>
<path d="M2608 1383 c12 -2 30 -2 40 0 9 3 -1 5 -23 4 -22 0 -30 -2 -17 -4z"/>
<path d="M8810 1375 c0 -5 5 -17 10 -25 5 -8 10 -10 10 -5 0 6 -5 17 -10 25
-5 8 -10 11 -10 5z"/>
<path d="M8837 1318 c-3 -8 5 -14 19 -14 20 -2 21 0 9 12 -17 17 -22 17 -28 2z"/>
<path d="M8770 1275 c0 -8 4 -15 8 -15 5 0 9 7 9 15 0 8 -4 15 -9 15 -4 0 -8
-7 -8 -15z"/>
<path d="M8345 1240 c3 -6 1 -10 -4 -10 -6 0 -11 -8 -11 -18 0 -13 8 -18 32
-17 42 0 45 16 7 37 -16 10 -27 13 -24 8z"/>
<path d="M8498 1232 c9 -10 19 -17 21 -16 6 5 -20 34 -30 34 -5 0 -1 -8 9 -18z"/>
<path d="M8305 1230 c-3 -5 -1 -10 4 -10 6 0 11 5 11 10 0 6 -2 10 -4 10 -3 0
-8 -4 -11 -10z"/>
<path d="M7468 1175 c2 -19 8 -32 13 -29 11 6 6 41 -7 54 -7 7 -9 -2 -6 -25z"/>
<path d="M7586 1188 c3 -5 10 -6 15 -3 13 9 11 12 -6 12 -8 0 -12 -4 -9 -9z"/>
<path d="M8536 1172 c-3 -5 1 -15 8 -21 11 -10 14 -9 12 3 -3 21 -13 29 -20
18z"/>
<path d="M7657 1149 c7 -7 15 -10 18 -7 3 3 -2 9 -12 12 -14 6 -15 5 -6 -5z"/>
<path d="M7630 1135 c0 -8 4 -15 10 -15 5 0 7 7 4 15 -4 8 -8 15 -10 15 -2 0
-4 -7 -4 -15z"/>
<path d="M1800 1081 c0 -6 4 -13 10 -16 6 -3 7 1 4 9 -7 18 -14 21 -14 7z"/>
<path d="M7650 1055 c0 -8 4 -15 10 -15 5 0 7 7 4 15 -4 8 -8 15 -10 15 -2 0
-4 -7 -4 -15z"/>
<path d="M1847 1049 c7 -7 15 -10 18 -7 3 3 -2 9 -12 12 -14 6 -15 5 -6 -5z"/>
<path d="M2481 903 c7 -12 15 -20 18 -17 3 2 -3 12 -13 22 -17 16 -18 16 -5
-5z"/>
<path d="M2741 768 c-17 -17 -31 -36 -31 -41 0 -5 15 6 33 25 17 20 39 38 47
41 13 5 12 6 -1 6 -9 1 -31 -13 -48 -31z"/>
<path d="M2986 734 c-4 -9 -2 -22 4 -29 5 -6 8 -14 5 -17 -3 -2 2 -5 10 -5 13
0 13 3 -2 19 -15 17 -11 23 11 19 5 -1 4 5 -4 13 -16 20 -16 20 -24 0z"/>
<path d="M3220 720 c-9 -6 -10 -10 -3 -10 6 0 15 5 18 10 8 12 4 12 -15 0z"/>
<path d="M3431 677 c13 -20 29 -35 34 -34 20 7 9 28 -24 49 l-34 22 24 -37z"/>
<path d="M7000 660 c-12 -7 -12 -11 0 -25 10 -13 15 -13 21 -3 7 10 9 10 9 1
0 -7 7 -10 15 -7 8 4 15 10 15 16 0 5 -4 7 -9 3 -5 -3 -16 1 -24 9 -8 9 -19
11 -27 6z"/>
<path d="M7070 641 c0 -20 -6 -31 -17 -34 -10 -3 -4 -5 13 -6 30 -1 64 23 51
36 -4 3 -9 -2 -13 -11 -3 -9 -10 -16 -15 -16 -12 0 -12 27 0 32 5 2 3 9 -5 16
-12 11 -14 8 -14 -17z"/>
<path d="M3750 580 c-33 -7 -31 -7 18 -9 29 0 52 3 52 9 0 11 -17 11 -70 0z"/>
<path d="M3563 573 c20 -2 54 -2 75 0 20 2 3 4 -38 4 -41 0 -58 -2 -37 -4z"/>
<path d="M3923 573 c9 -2 25 -2 35 0 9 3 1 5 -18 5 -19 0 -27 -2 -17 -5z"/>
</g>
</svg>
